<?xml version="1.0" encoding="utf-8"?>
<!-- Generator: Adobe Illustrator 27.5.0, SVG Export Plug-In . SVG Version: 6.00 Build 0)  -->
<svg version="1.1" id="Warstwa_1" xmlns="http://www.w3.org/2000/svg" xmlns:xlink="http://www.w3.org/1999/xlink" x="0px" y="0px"
	 viewBox="0 0 384 384" style="enable-background:new 0 0 384 384;" xml:space="preserve">
<style type="text/css">
	.st0{display:none;}
	.st1{display:inline;}
</style>
<g id="pneumatyka" class="st0">
	<path class="st1" d="M384,235.91c-0.77,4.38-1.34,8.8-2.35,13.13c-7.18,30.68-25.73,51.82-54.41,64.29
		c-2.42,1.05-3.46,2.24-3.43,4.88c0.08,6.57-0.22,13.15-0.05,19.72c0.04,1.42,1.01,3.35,2.17,4.14c7.88,5.32,11.14,15.8,7.2,24.5
		c-2.57,5.67-7.37,8.32-13.38,8.45c-8.8,0.2-17.62,0.23-26.42-0.01c-8.65-0.23-14.07-6.08-14.43-14.79
		c-0.33-7.95,1.2-14.84,9.32-18.55c0.72-0.33,1.51-1.48,1.53-2.26c0.12-6.42,0.07-12.85,0.07-19.5c-19.3,0-38.07,0-57.46,0
		c0,4.49,0.28,8.67-0.06,12.81c-0.78,9.55-7.96,17.09-17.46,17.75c-7.89,0.55-15.85,0.41-23.77,0.19c-4.28-0.12-6.56-2.56-6.4-5.75
		c0.14-2.97,2.51-5,6.61-5.14c6.94-0.23,13.89-0.08,20.82-0.35c6.01-0.23,8.74-2.96,9.17-9.01c0.23-3.31,0.04-6.64,0.04-10.25
		c-26.15,0-52.11,0-78,0c0,6.37,0,12.62,0,19.47c3.43,0,7.08,0,10.72,0c3.1,0,6.21-0.08,9.3,0.06c3.73,0.17,6.24,2.45,6.33,5.49
		c0.08,2.85-2.18,5.35-5.84,5.51c-7.3,0.32-14.62,0.32-21.93,0.31c-2.45,0-3.81,0.72-5.19,3.04c-9.37,15.7-29.27,24.02-46.82,19.89
		c-18.14-4.26-33.02-20.95-34.91-38.74c-0.73-6.84,0.09-13.36,2.47-19.7c0.82-2.18,0.61-3.15-1.62-4.23
		c-29.7-14.35-47.53-37.97-51.66-70.55c-5.94-46.8,23.82-88.24,68.8-98.54c1.21-0.28,2.58-0.24,3.59-0.84
		c0.95-0.56,2.1-1.71,2.17-2.67c0.26-3.58,0.26-7.2,0.02-10.78c-0.07-1.02-1.22-2.02-2.01-2.92c-1.47-1.68-4.15-3.22-4.25-4.93
		c-0.09-1.7,2.15-3.8,3.79-5.25c1.99-1.75,3.83-8.92,2.25-11.01c-0.46-0.6-1.65-0.61-2.21-1.18c-1.46-1.51-3.52-3.03-3.85-4.82
		c-0.24-1.31,1.77-3.16,2.99-4.58c0.99-1.14,3.11-1.88,3.3-3.03c0.44-2.63,0.11-5.42-0.18-8.11c-0.06-0.54-1.41-0.85-1.98-1.45
		c-1.52-1.59-3.9-3.17-4.09-4.94c-0.15-1.48,2.03-3.71,3.7-4.75c1.8-1.12,2.63-2.07,2.64-4.26c0.1-16.08,8.06-23.9,24.1-23.87
		c0.73,0,1.46,0,2.88,0c0-3.55-0.04-6.96,0.01-10.37c0.05-3.1-0.07-6.23,0.34-9.28c0.94-6.95,5.23-11,12.2-11.17
		c9.42-0.23,18.86-0.26,28.27,0.03c7.96,0.25,12.6,5.47,12.64,13.54c0.03,4.59,0.13,9.19-0.12,13.76c-0.16,2.9,0.61,3.88,3.68,3.83
		c3.41-0.05,7.02,0.21,10.21,1.31c8.66,2.99,13.63,11.02,13.27,21.07c-0.1,2.9,0.57,4.46,3.34,5.71c1.43,0.64,3.03,3.01,2.9,4.46
		c-0.15,1.7-1.81,3.64-3.34,4.73c-1.51,1.07-3.54,1.33-3.01,3.85c0.62,2.94-1.75,6.73,3.06,8.52c1.65,0.61,3.53,3.2,3.53,4.89
		c0,1.67-1.88,4.2-3.54,4.87c-4.55,1.85-1.98,5.54-2.74,8.31c-0.62,2.25,0.95,3.04,2.7,4.12c1.57,0.97,3.58,3.22,3.36,4.58
		c-0.31,1.91-2.18,4.17-3.98,5.05c-1.92,0.94-2.62,1.69-2.49,3.73c0.19,2.97-0.06,5.97,0.24,8.92c0.1,0.94,1.37,2.51,2.12,2.51
		c19.57,0.14,39.14,0.11,59.18,0.11c0-5.24,0.21-10.17-0.15-15.06c-0.09-1.18-1.91-2.44-3.19-3.28
		c-11.44-7.47-18.58-17.79-20.3-31.4c-2.6-20.54,9.89-40.03,29.79-47.03c25.18-8.85,52.02,7.47,56.53,34.37
		c2.95,17.6-5.07,34.9-20.56,43.95c-2.1,1.23-2.99,2.49-2.84,4.96c0.2,3.33,0.2,6.72-0.17,10.03c-0.33,3.05,0.98,3.51,3.58,3.5
		c12.99-0.06,25.78,1.51,37.8,6.66c28.84,12.35,46.4,34.19,53.46,64.62c0.53,2.28,0.5,4.68,0.87,7c0.04,0.26,0.99,0.38,1.52,0.56
		C384,224.5,384,230.2,384,235.91z M125.35,150.9c-0.17,0.97-0.29,1.33-0.29,1.69c-0.02,46.24-0.05,92.49,0.05,138.73
		c0,1.49,1.07,3.18,2.09,4.42c2.67,3.24,5.95,6.03,8.31,9.46c1.92,2.79,3.93,3.89,7.27,3.88c38.06-0.1,76.12-0.07,114.18-0.08
		c1.56,0,3.11,0,4.81,0c0.08-1.5,0.17-2.47,0.17-3.44c0.01-50.33-0.02-100.67,0.07-151c0.01-3.02-0.93-3.71-3.8-3.71
		c-42.03,0.09-84.06,0.06-126.08,0.06C129.93,150.9,127.72,150.9,125.35,150.9z M273.04,151.05c-0.05,1.18-0.12,2.02-0.12,2.87
		c-0.08,50.71-0.14,101.42-0.25,152.13c0,2.02,0.5,2.96,2.71,2.86c3.59-0.15,7.2-0.23,10.78-0.04c2.92,0.15,3.82-0.82,3.79-3.81
		c-0.15-19.71-0.12-39.43-0.11-59.14c0-1.6,0.04-3.26,0.47-4.78c0.95-3.44,4.54-4.7,7.74-3.06c2.93,1.5,2.79,4.16,2.79,6.75
		c-0.01,19.71-0.07,39.43-0.11,59.14c0,1.32,0,2.65,0,3.92c19.7,2.31,49.91-17.26,62.66-40.94c14.54-27.01,12.96-59.99-7.5-85.95
		c-13.82-17.53-32.1-28.07-54.94-29.85c-0.17,1.11-0.27,1.47-0.27,1.83c0.1,20.09,0.22,40.17,0.3,60.26
		c0.01,1.73,0.35,3.84-0.49,5.08c-1.09,1.63-3.07,3.26-4.91,3.64c-2.32,0.47-4.77-0.68-5.3-3.51c-0.38-2.05-0.46-4.19-0.46-6.29
		c-0.03-17.98-0.02-35.96-0.02-53.94c0-2.31,0-4.63,0-7.18C283.99,151.05,278.72,151.05,273.04,151.05z M86.1,150.94
		c-4.23,0.71-8.26,1.09-12.13,2.07c-34.26,8.59-56.6,39.93-59.55,68.19c-3.51,33.54,15.53,67.94,46.57,80.99
		c1.75,0.74,2.78,0.73,4.08-0.84c4.91-5.93,10.92-10.43,18.28-12.89c2.3-0.77,2.87-2.13,2.87-4.44
		c-0.01-43.26,0.05-86.52,0.1-129.78C86.31,153.39,86.2,152.55,86.1,150.94z M89.36,92.26c7.86,0,15.15-0.06,22.44,0.03
		c3.86,0.05,6.4,2.24,6.44,5.26c0.04,3.15-2.26,5.43-6.13,5.61c-4.45,0.2-8.92,0.11-13.39,0.12c-9.91,0.02-9.91,0.02-9.11,10.07
		c0.01,0.1,0.11,0.2,0.39,0.66c0.96,0.05,2.15,0.17,3.35,0.16c6.07-0.01,12.15-0.12,18.22-0.08c4.36,0.03,6.89,2.24,6.77,5.66
		c-0.13,3.57-2.37,5.29-6.94,5.29c-7.27,0-14.54,0-21.7,0c0,5.2,0,9.94,0,14.56c28.83,0,57.27,0,85.66,0c0-4.97,0-9.62,0-14.57
		c-7.56,0-14.86,0.05-22.15-0.02c-3.76-0.04-6.03-1.97-6.22-5.02c-0.2-3.28,1.53-5.3,5.55-5.54c6.18-0.36,12.38-0.29,18.58-0.43
		c1.42-0.03,2.84-0.17,4.26-0.27c0.09-1.09,0.17-1.7,0.19-2.31c0.27-8.16,0.27-8.12-7.75-8.18c-5.45-0.05-10.89-0.15-16.33-0.4
		c-2.98-0.14-4.47-2.2-4.56-4.94c-0.1-2.97,1.66-4.88,4.57-5.46c1.32-0.26,2.72-0.16,4.08-0.17c6.54-0.01,13.07-0.01,19.8-0.01
		c0-3.98,0-7.48,0-11.18c-4.95,0-9.63,0.01-14.32,0c-3.1-0.01-6.21,0.11-9.29-0.13c-3.01-0.24-4.78-2.24-4.86-5.16
		c-0.08-2.73,1.36-4.77,4.28-5.23c1.82-0.29,3.68-0.47,5.53-0.49c6.16-0.06,12.32-0.02,18.4-0.02c1.79-10.38-2.2-16.02-11.8-16.12
		c-20.7-0.2-41.41,0.09-62.11-0.01c-9.23-0.04-13.4,6.43-11.24,16.21c1.78,0,3.62,0,5.47,0c5.7-0.01,11.43-0.29,17.09,0.14
		c1.85,0.14,4.2,1.76,5.14,3.38c0.74,1.28,0.26,4.1-0.76,5.34c-1.05,1.27-3.4,1.97-5.2,2.02c-6.44,0.19-12.89-0.11-19.33,0.04
		c-1.01,0.02-2.75,1.27-2.86,2.12C89.13,85.97,89.36,88.83,89.36,92.26z M234.9,83.86c0.01,18.89,14.05,33.1,32.68,33.08
		c18.18-0.02,32.77-14.79,32.64-33.03c-0.12-17.02-15.52-32.37-32.46-32.35C249.63,51.58,234.89,66.07,234.9,83.86z M97.01,151.07
		c0,2.3,0,4.37,0,6.45c0.02,37.42,0.06,74.83,0.06,112.25c0,4.34-0.23,8.67-0.15,13c0.02,0.99,0.79,2.71,1.42,2.82
		c5.19,0.85,10.43,1.39,15.59,2.02c0-45.54,0-91,0-136.54C108.04,151.07,102.76,151.07,97.01,151.07z M99.22,296.67
		c-18.58,0.03-33.67,15.06-33.64,33.52c0.03,18.59,15.29,33.77,33.9,33.7c18.28-0.06,33.36-15.18,33.39-33.46
		C132.9,311.52,118.08,296.65,99.22,296.67z M119.59,23.14c-2.22-0.01-3.01,1.02-2.95,3.22c0.13,4.46,0.18,8.93,0,13.39
		c-0.11,2.69,0.9,3.37,3.46,3.31c8.05-0.19,16.12-0.13,24.17-0.19c1.21-0.01,2.41-0.15,3.98-0.26c0-5.49-0.17-10.68,0.07-15.85
		c0.13-2.76-1.13-3.53-3.45-3.54 M307.27,351.47c0,0.06,0,0.11,0,0.17c-4.22,0-8.44-0.1-12.65,0.03c-4.05,0.13-4.74,1.07-4.76,5.7
		c-0.02,5.55,0.43,6.29,4.81,6.37c8.06,0.14,16.12,0.02,24.18,0.19c3.4,0.07,4.75-1.48,4.74-4.64c0-1.24,0.01-2.48-0.03-3.72
		c-0.08-2.83-1.32-4.28-4.39-4.14C315.21,351.61,311.24,351.47,307.27,351.47z M312.32,340.54c0-7.56,0-14.92,0-22.48
		c-4,0.42-7.74,0.81-11.42,1.2c0,7.41,0,14.29,0,21.29C304.83,340.54,308.49,340.54,312.32,340.54z M259.13,139.65
		c5.82,0,11.21,0,16.71,0c0-4.16,0-8.06,0-12.03c-5.66,0-11.11,0-16.71,0C259.13,131.67,259.13,135.58,259.13,139.65z"/>
	<path class="st1" d="M272.96,72.36c-1.09,3.63,0.08,6.28,3.2,8.8c3.05,2.47,1.63,7.35-2.29,7.95c-4.21,0.64-8.62,0.67-12.85,0.19
		c-1.54-0.17-3.56-2.37-4.01-4.02c-0.38-1.37,0.77-3.81,2.02-4.84c2.14-1.76,3.16-3.55,2.96-6.3c-0.19-2.58-0.1-5.19-0.02-7.78
		c0.1-3.26,2.06-5.01,5.11-5.29c3.08-0.28,4.85,1.58,5.31,4.51C272.73,67.77,272.77,70,272.96,72.36z"/>
	<path class="st1" d="M99.15,350.66c-11.57,0.05-20.46-9.01-20.45-20.84c0.01-11.24,9.33-20.3,20.81-20.23
		c10.92,0.06,20.26,9.54,20.27,20.57C119.79,341.37,110.49,350.61,99.15,350.66z M99.32,339.4c5.14-0.05,9.09-4.04,9.16-9.23
		c0.06-4.79-4.49-9.39-9.24-9.35c-5.4,0.05-9.41,4.04-9.43,9.37C89.78,335.47,93.89,339.45,99.32,339.4z"/>
</g>
<g id="e-mail" class="st0">
	<path class="st1" d="M253.78,259.65c-45.13,36.83-100.27,25.71-129.14-9.85c-27.96-34.43-27.44-82.09,3.1-116.45
		c30.78-34.64,81.42-38.19,118.88-11.21c0.36-1.07,0.74-2.03,1.02-3.02c2.82-10.08,10.25-15.96,18.9-14.96
		c9.25,1.07,16.15,9.25,16.2,19.7c0.12,20.72,0.04,41.44,0.04,62.15c0,15.14,0,30.27,0,45.41c0.01,13.62,9.41,25.18,22.2,27.31
		c13.69,2.28,25.44-4.84,29.81-18.71c14.4-45.72,8.88-89.06-17.51-129.05c-25.41-38.49-61.94-60.48-107.54-65.24
		c-56.52-5.9-102.72,14.5-136.71,60.21c-15.34,20.63-24.85,44.19-27.56,70.11c-4.32,41.35,6.6,78.24,32.18,110.93
		c18.73,23.93,42.99,39.76,71.84,48.54c39.75,12.09,78.06,7.91,114.84-11.21c2.64-1.37,5.17-2.98,7.88-4.17
		c8.83-3.88,18.99-0.19,23.08,8.24c4.31,8.89,1.08,18.69-7.53,23.62c-20.52,11.74-42.38,19.72-65.69,23.67
		c-34.75,5.9-68.38,1.34-100.29-12.97c-60.8-27.27-97.89-74-109.93-139.64C1.51,166.64,17.04,116.63,53.26,73.1
		c27.11-32.58,61.86-53.99,103.69-61.64c66.09-12.08,123,6.71,170.13,54.54c17.72,17.98,31,39.14,39.38,62.87
		c10.97,31.07,15.12,63.06,8.73,95.85c-2.39,12.28-4.79,24.66-10.75,35.8c-11.29,21.12-29.07,33.34-53.05,33.93
		c-24.22,0.6-42.68-10.88-55.52-31.37C255.18,261.96,254.49,260.82,253.78,259.65z M139.85,193.64
		c0.01,30.74,23.5,53.21,55.66,53.25c27.54,0.04,51.53-24.75,51.45-53.16c-0.09-30.72-23.07-53.88-53.47-53.89
		C163.21,139.84,139.83,163.29,139.85,193.64z"/>
</g>
<g class="st0">
	<path class="st1" d="M180.86,128.43c-0.86-0.98-2.13-2.5-3.49-3.95c-1.99-2.12-2.08-4.1,0.08-6.2c2.53-2.46,4.81-5.2,7.5-7.48
		c2.48-2.1,2.53-3.71,0.48-6.22c-3.51-4.28-6.89-8.72-9.86-13.39c-5.3-8.35-1.79-18.73,7.49-22.41c0.97-0.39,2.93,0.44,3.83,1.32
		c8.26,8.15,16.4,16.41,24.53,24.68c3.16,3.21,6.21,6.53,9.28,9.76c10.27-10.08,20.06-19.68,30.14-29.57
		c-0.86-0.98-1.61-1.91-2.44-2.76c-9.36-9.55-18.76-19.05-28.1-28.62c-4.76-4.88-4.76-5.33,0.09-10.23c1.58-1.6,3.39-3.03,5.27-4.26
		c3.93-2.56,8.14-2.89,12.08-0.22c5.31,3.6,10.42,7.51,15.62,11.29c0.89,0.64,1.79,1.26,3.31,2.33c1.22-1.49,2.17-3.03,3.46-4.19
		c6.94-6.21,13.33-6.09,19.95,0.47c10.58,10.47,21.09,21.01,31.59,31.56c6.13,6.17,12.69,12.02,18.15,18.75
		c14.01,17.25,27.57,34.87,41.18,52.44c3.08,3.97,5.95,8.17,8.37,12.56c4.11,7.48,3.2,15-1.81,21.66
		c-3.16,4.19-7.18,7.75-10.89,11.51c-1.7,1.72-3.48,2.24-5.47,0.09c-1.52-1.65-3.49-2.87-5.08-4.46
		c-18.24-18.33-36.47-36.67-54.61-55.1c-1.36-1.38-2.21-3.45-2.81-5.35c-1.11-3.58-5.25-5.45-7.65-3.04
		c-9.06,9.1-18.02,18.3-27.68,28.14c6.52,7.09,13.13,14.58,20.06,21.75c14.81,15.32,29.82,30.46,44.69,45.71
		c3.55,3.64,3.51,4.38-0.1,7.98c-3.03,3.02-5.99,6.2-9.38,8.77c-8.1,6.16-17.23,6.81-25.28,0.9
		c-19.68-14.46-40.38-27.73-56.69-46.32c-1.61-1.84-2.62-1.94-4.47-0.06c-14.37,14.52-28.86,28.93-43.36,43.31
		c-5.4,5.36-6.37,5.35-13.17,1.87c-0.86-0.44-2.71-0.27-3.35,0.37c-19.8,19.8-39.49,39.71-59.23,59.57
		c-7.56,7.61-14.33,16.36-22.97,22.45c-15.91,11.22-27.58,26.65-42,39.27c-5.58,4.89-12.83,5.84-18.29,0.97
		C21.12,346.29,12.8,337.97,5,329.25c-4.91-5.48-3.8-13.23,1.89-19.22c8.17-8.59,16.63-16.9,24.99-25.3c2.4-2.41,4.9-4.73,7.39-7.06
		c2.14-2,3.71-4.77,7.31-4.73c0.84,0.01,1.75-1.32,2.54-2.11c26.73-26.78,53.44-53.59,80.21-80.33c1.72-1.72,2.89-3.19,2.23-5.86
		c-1.09-4.4,1.64-7.37,4.46-10.2c12.91-12.96,25.83-25.91,38.69-38.91C176.82,133.4,178.65,130.99,180.86,128.43z M27.6,299.42
		c-6.34,6.65-11.9,12.1-16.98,17.96c-2.54,2.94-1.24,6.31,1.28,8.85c7.11,7.15,14.26,14.27,21.56,21.22
		c3.04,2.9,6.64,2.82,9.96,0.25c1.39-1.07,2.61-2.38,3.86-3.62c9.76-9.67,19.49-19.38,29.3-29.01c1.22-1.19,2.82-2,4.27-2.95
		c1.54-1.01,3.35-1.73,4.63-3c24.03-23.94,48.03-47.9,71.94-71.96c3.97-3.99,7.49-8.44,11.37-12.86
		c-10.02-9.91-20.78-20.55-31.4-31.05c-3.51,3.28-6.43,6.02-9.97,9.34c2.78,2.53,5.37,4.74,7.77,7.12c1.67,1.65,3.11,3.54,0.81,5.84
		c-2.23,2.23-4.06,1.03-5.85-0.67c-2.52-2.39-5.07-4.76-6.91-6.48c-4.01,3.33-7.57,6.29-12.32,10.23c3.35,2.75,6.05,4.82,8.58,7.09
		c1.97,1.77,2.28,3.9,0.34,5.96c-1.97,2.09-3.71,0.72-5.24-0.62c-1.99-1.74-3.75-3.74-5.75-5.47c-0.74-0.64-2.41-1.4-2.73-1.11
		c-3.22,2.98-6.55,5.96-9.01,9.52c-0.42,0.61,3.14,3.97,4.87,6.06c0.24,0.29,0.53,0.54,0.77,0.83c1.6,1.94,3.82,3.91,1.28,6.49
		c-2.76,2.8-4.86,0.36-6.7-1.43c-2.12-2.06-3.95-4.42-5.62-6.33c-4.21,4.21-7.63,7.63-11.05,11.04c2.41,2.55,5.09,4.92,7.13,7.75
		c0.8,1.12,0.82,3.67,0.07,4.84c-1.25,1.95-3.22,1.27-4.8-0.28c-2.59-2.54-5.26-5.01-7.62-7.25c-3.75,3.61-7.23,6.96-10.81,10.41
		c2.47,2.66,4.9,5.2,7.25,7.82c1.5,1.67,2,3.44,0.21,5.35c-1.9,2.02-3.53,1.28-5.17-0.3c-2.09-2.01-4.11-4.1-6.31-5.98
		c-0.68-0.58-2.28-1.1-2.74-0.74c-3.19,2.54-6.19,5.32-9.13,7.91c2.27,2.15,4.46,4.17,6.58,6.28c1.75,1.73,2.96,3.7,0.69,5.85
		c-2.26,2.14-3.96,0.21-5.51-1.17c-2.5-2.23-4.85-4.63-7.12-6.82c-2.77,2.6-5.12,5.05-7.74,7.19c-2.7,2.21-3.3,4.04-0.12,6.37
		c1.6,1.17,2.84,2.86,4.13,4.4c1.51,1.79,2.94,3.72,0.67,5.93c-2.21,2.16-4.29,1.01-5.93-0.71
		C32.15,305.17,30.19,302.54,27.6,299.42z M184.4,120.52c0.46,1.1,0.53,1.5,0.75,1.78c5.84,7.32,5.84,7.32-0.75,13.86
		c-0.18,0.18-0.36,0.35-0.54,0.53c-14.39,14.5-28.78,29-43.2,43.47c-1.73,1.73-2.66,3.2-0.5,5.37
		c13.01,13.03,25.97,26.1,38.89,39.21c2.19,2.22,4.02,2.62,6.24,0.05c1.72-2,3.76-3.73,5.63-5.6
		c13.74-13.72,27.45-27.48,41.24-41.16c4.18-4.15,6.42-3.64,9.08,1.62c0.9,1.78,1.68,3.78,3.06,5.11
		c5.27,5.05,10.47,10.26,16.24,14.69c11.4,8.74,23.14,17.03,34.79,25.44c8.57,6.19,15.34,5.59,22.84-1.83
		c4.6-4.55,4.49-4.45,0.11-9.26c-19.4-21.27-42.32-39.13-59.68-62.45c-5.95-7.99-14.3-14.18-21.45-21.29
		c-16.89-16.81-33.76-33.64-50.52-50.58c-2.38-2.4-3.69-2.09-5.62,0.37c-2.2,2.83-1.25,5.29,0.48,7.58
		c4.33,5.73,8.78,11.37,13.31,16.94c2.05,2.52,2.12,4.58-0.39,6.81C190.94,114.28,187.6,117.53,184.4,120.52z M363.43,179.61
		c11.51-7.54,14.86-17.41,6.49-27.68c-3.42-4.2-6.56-8.63-9.92-12.89c-9.2-11.66-18.45-23.29-27.67-34.94
		c-2.39-3.02-6.62-4.76-6.61-9.52c0-0.54-0.96-1.1-1.49-1.64c-15.19-15.13-30.41-30.24-45.57-45.4c-8.55-8.55-9.07-8.59-17.64-0.08
		c-4.67,4.64-4.74,4.64-9.9,0.55c-0.79-0.63-1.54-1.31-2.35-1.91c-4.74-3.55-9.47-7.13-14.26-10.6c-3.01-2.19-5.66-0.67-7.72,1.49
		c-2.36,2.48,0.79,3.61,1.8,5.21c0.33,0.52,0.9,0.87,1.35,1.32c23.74,23.71,47.48,47.42,71.21,71.15c0.62,0.62,1.63,1.37,1.6,2.02
		c-0.17,3.78,2.79,5.44,4.94,7.6c4.19,4.2,8.55,8.22,12.75,12.4C334.74,150.92,349,165.2,363.43,179.61z M288.84,112.76
		c-11.11-11.14-21.16-21.19-31.18-31.27c-1.78-1.79-2.63-0.54-3.89,0.75c-8.27,8.46-16.54,16.93-25.04,25.17
		c-2.03,1.97-2.3,2.92-0.21,4.97c8.74,8.53,17.29,17.24,25.94,25.85c1.37,1.37,2.89,2.6,4.33,3.9c-0.17-0.39-0.34-0.78-0.52-1.17
		C268.35,131.67,278.42,122.38,288.84,112.76z"/>
	<path class="st1" d="M213.91,122.91c2.72,1.47,4.98,2.17,6.54,3.63c6.26,5.84,12.49,11.74,18.36,17.96c4.69,4.97,4.3,9.3-1.1,14.87
		c-10.26,10.58-20.69,21-31.08,31.45c-4.71,4.73-9.47,9.42-14.28,14.04c-5.95,5.72-10.44,5.81-16.34,0.13
		c-5.26-5.07-10.47-10.21-15.42-15.57c-5.72-6.19-5.54-10.27,0.44-16.27c14.85-14.9,29.71-29.8,44.71-44.55
		C208.03,126.33,211.09,124.84,213.91,122.91z M184.17,202.03c1.06-0.85,2.1-1.56,2.98-2.43c15.3-15.2,30.56-30.43,45.87-45.61
		c1.71-1.69,1.74-3.03,0-4.74c-5.57-5.48-11.12-11-16.53-16.64c-1.88-1.96-3.25-1.73-4.99,0.02
		c-15.43,15.42-30.87,30.84-46.39,46.17c-2.2,2.17-1.79,3.69,0.2,5.59c5.48,5.22,10.85,10.54,16.3,15.79
		C182.32,200.85,183.21,201.34,184.17,202.03z"/>
</g>
<g>
	<path d="M384,162.98c-2.59,3.59-6,5.45-10.51,4.92c-2.4-0.28-2.48,1.12-2.46,3c0.13,16.87,0.19,33.73,0.24,50.6
		c0.02,7.78-2.18,10.03-9.88,10.09c-6.57,0.05-13.14,0.06-19.71-0.07c-6.02-0.12-8.26-2.48-8.27-8.48
		c-0.02-16.87-0.01-33.73-0.01-50.6c0-1.32,0-2.65,0-4.16c-4.39,0-8.31,0-12.93,0c0,2.51,0,5.04,0,7.57
		c0.02,27.66,0.12,55.31,0.02,82.97c-0.09,22.23-7.19,41.59-24.25,56.58c-11.75,10.33-25.52,16.03-41.1,17.09
		c-8.4,0.57-16.83,0.85-25.25,0.87c-49.86,0.08-99.71,0.13-149.57-0.01c-18.88-0.06-36.72-3.99-51.57-16.68
		c-15.47-13.22-24.47-29.9-24.96-50.38c-0.63-26.52-0.74-53.06-0.74-79.6c0-17.73,3.78-34.43,15.37-48.61
		c11.71-14.32,26.47-23.35,44.93-25.79c3.82-0.5,5.94-1.94,6.76-5.85c0.71-3.36,1.7-6.84,3.42-9.76c1.15-1.95,3.69-4.08,5.78-4.28
		c6.14-0.57,12.38-0.45,18.55-0.15c4.41,0.22,6.23,2.25,6.36,6.65c0.2,6.69,0.11,13.39,0.11,20.08c0.02,21.21,0.03,42.42,0.04,63.62
		c0,8.3-2.51,10.8-10.91,10.85c-3.84,0.02-7.69,0.07-11.53-0.01c-5.27-0.11-7.38-1.61-9.17-6.51c-1.23-3.37-2.4-6.77-3.38-10.21
		c-1.24-4.34-4.64-2.22-7.14-2.43c-2.83-0.24-2.12,2.19-2.13,3.75c-0.16,27.16-0.32,54.32-0.38,81.48
		c-0.02,8.12,1.93,10.12,10.07,10.27c6.44,0.12,12.9-0.18,19.34-0.18c54.2,0,108.4,0.02,162.59,0.03c10.09,0,11.75-1.52,11.76-11.54
		c0.05-28.9-0.05-57.79,0.06-86.69c0.01-3.23-1.01-4.01-4.06-3.75c-3.44,0.29-6.94,0.14-10.41-0.05c-2.66-0.15-4.35,0.41-4.35,3.51
		c0.01,3.27-1.59,4.47-4.77,3.29c-0.46-0.17-0.97-0.21-1.46-0.26c-3.79-0.43-7.72-0.71-6.28-6.49c-2.57,0-4.67,0.17-6.73-0.04
		c-3.68-0.36-6.37,0.1-6.3,4.83c0.01,0.8-1.98,1.93-3.24,2.34c-0.93,0.3-2.14-0.46-3.25-0.52c-4.04-0.24-7.36-1.08-5.49-6.61
		c-3.81,0-7.14-0.18-10.42,0.11c-0.95,0.08-2.12,1.33-2.6,2.33c-0.62,1.29-0.64,2.87-1.06,5.01c-3.78-0.64-7.45-1.26-10.94-1.85
		c-0.28-0.5-0.44-0.69-0.52-0.92c-0.56-1.56-0.71-4.09-1.73-4.52c-2.99-1.24-8.15,0.49-9.24,2.57c-2.86,5.49-5.74,10.97-8.37,16.58
		c-2.24,4.76-5.82,6.77-10.98,6.55c-4.09-0.17-8.19,0.11-12.27-0.13c-6.47-0.37-8.9-2.94-8.91-9.39
		c-0.06-27.53-0.08-55.06-0.03-82.59c0.01-6.8,1.98-8.92,8.77-9.3c4.94-0.27,9.92,0.05,14.87-0.1c4.2-0.13,6.68,2,8.38,5.52
		c2.75,5.68,5.42,11.41,8.44,16.95c0.71,1.31,2.62,2.63,4.07,2.74c4.93,0.38,9.91,0.15,14.87,0.28c2.13,0.06,3.02-0.62,3.31-2.89
		c0.63-4.8,0.79-4.78,5.59-3.69c0.6,0.14,1.2,0.3,1.81,0.43c4.87,1.05,4.87,1.05,5.4,6.13c3.24,0,6.56,0.19,9.83-0.12
		c0.92-0.09,2.02-1.49,2.47-2.54c0.57-1.31,0.56-2.88,0.89-4.91c3.66,0.67,7.23,0.96,10.5,2.12c1.06,0.38,1.3,3.04,2.2,5.42
		c2.95,0,6.64,0.28,10.22-0.19c0.89-0.12,1.9-2.59,2.1-4.08c0.36-2.62,1.26-3.54,3.88-2.62c1.5,0.53,3.12,0.86,4.72,0.99
		c2.45,0.2,3.96,0.94,3.63,3.83c-0.27,2.44,1.63,2.48,3.27,2.28c1.66-0.2,4.09,0.61,4.15-2.38c0.05-2.73-0.09-5.46,0.01-8.18
		c0.22-5.91,2.56-8.66,8.35-8.76c13.27-0.22,26.54-0.21,39.81-0.02c5.84,0.09,8.01,2.43,8.45,8.19c0.2,2.59,0.21,5.21,0.04,7.8
		c-0.16,2.47,0.79,3.32,3.21,3.21c3.18-0.15,6.37-0.04,9.98-0.04c0-2.05,0-3.5,0-4.95c0-16.37,0-32.74,0-49.11
		c0-6.46,2.25-9.34,8.61-9.67c7.3-0.37,14.64-0.32,21.94-0.03c4.94,0.2,7.35,3.38,7.35,8.94c0,16.87-0.01,33.73-0.22,50.6
		c-0.04,3.11,0.46,4.72,3.96,4.31c3.88-0.45,6.39,2.12,8.96,4.46C384,135.69,384,149.33,384,162.98z M288.75,187.49
		c0-3.63,0.12-6.72-0.04-9.81c-0.12-2.29,0.8-3.07,3-3.07c4.34,0,8.68-0.27,13.01-0.21c2.43,0.03,3.21-0.84,3.2-3.26
		c-0.09-19.1-0.1-38.2-0.03-57.3c0.01-2.35-0.83-2.95-3.04-2.94c-8.56,0.06-17.11,0.05-25.67-0.11c-2.63-0.05-3.31,0.77-3.31,3.41
		c0.1,46.01,0.09,92.03,0.06,138.04c0,4.33-0.21,8.67-0.5,13c-0.37,5.55-3.21,9.73-7.53,13.1c-4.95,3.87-10.76,4.17-16.61,4.17
		c-59.91,0.05-119.81,0.06-179.72,0.05c-2.35,0-4.71-0.23-7.04-0.55c-10.06-1.35-16.85-8.76-16.89-18.96
		c-0.11-31.25-0.05-62.51-0.02-93.76c0-4.09,2.16-6.8,6.12-7.07c6.05-0.4,12.13-0.44,18.2-0.41c3.78,0.02,6.17,2.11,7.24,5.78
		c1.04,3.56,2.32,7.05,3.29,10.63c0.6,2.2,1.86,3.01,4.02,2.82c1.8-0.16,3.61-0.25,5.52-0.37c0.07-1.35,0.17-2.33,0.17-3.3
		c0.01-23.07,0.01-46.13-0.02-69.2c0-1.59,0.76-3.99-2.03-3.82c-2.61,0.16-6.14-2.08-7.51,2.32c-1.11,3.54-2.35,7.04-3.41,10.6
		c-1.18,3.94-3.83,5.89-7.83,6.27c-3.21,0.31-6.44,0.5-9.6,1.11c-26.11,5.04-45.33,26.76-46.02,53.39
		c-0.7,27.14-0.42,54.32-0.37,81.47c0.01,5.3,0.48,10.68,1.47,15.89c4.26,22.39,25.43,45.41,57.27,45.22
		c57.05-0.33,114.1-0.06,171.16-0.26c7.25-0.03,14.8-0.32,21.7-2.3c25.61-7.34,40.98-29.3,40.92-57.16
		c-0.05-23.44-0.08-46.88-0.14-70.32c0-0.95-0.16-1.91-0.26-3.11C301.26,187.49,295.23,187.49,288.75,187.49z M320.51,130.05
		c0,7.91,0.08,15.22-0.04,22.53c-0.04,2.44,1.07,2.87,3.16,2.85c14.88-0.1,29.76-0.11,44.65-0.18c0.95,0,1.9-0.2,3.03-0.33
		c0-7.32-0.14-14.38,0.07-21.43c0.08-2.9-0.94-3.52-3.64-3.5c-13.77,0.12-27.53,0.06-41.3,0.06
		C324.61,130.05,322.78,130.05,320.51,130.05z M143.03,180.41c6.53,2.15,9.27-0.82,12.31-6.1c5.67-9.84,6.09-20.11,6.63-30.99
		c0.66-13.38-1.64-25.43-8.99-36.55c-0.27-0.41-0.32-1-0.65-1.32c-0.49-0.49-1.12-1.12-1.71-1.15c-2.53-0.13-5.06-0.05-7.58-0.05
		C143.03,130.03,143.03,155.27,143.03,180.41z M345.78,66.34c0,16.81-0.02,33.03,0.09,49.26c0,0.62,1.29,1.73,2.03,1.77
		c2.84,0.17,5.72,0.18,8.54-0.15c0.86-0.1,2.23-1.48,2.24-2.29c0.13-15.37,0.12-30.75-0.02-46.12c-0.01-0.83-1.39-2.29-2.23-2.36
		C353.13,66.18,349.79,66.34,345.78,66.34z M345.89,218.92c3.47,0,6.68-0.15,9.86,0.05c2.49,0.16,3.13-0.69,3.11-3.15
		c-0.13-12.76-0.07-25.53-0.08-38.29c0-9.52,0-9.41-9.36-9.51c-2.77-0.03-3.61,0.73-3.59,3.53
		C345.95,187.14,345.89,202.73,345.89,218.92z M222.51,155.58c3.22,0,5.69-0.21,8.11,0.05c3.6,0.39,5.26-0.79,5.84-4.6
		c1.04-6.9,2.68-13.72,4.22-21.31c-4.27,0-7.94-0.07-11.59,0.07c-0.61,0.02-1.57,0.9-1.7,1.53
		C225.74,139.14,224.22,146.99,222.51,155.58z M174.38,130.16c0,6.27,0,12.31,0,18.34c0,7.49,0.5,7.98,7.89,6.86
		c0.94-0.14,2.29-1.23,2.48-2.09c1.69-7.57,3.17-15.19,4.77-23.11C184.38,130.16,179.63,130.16,174.38,130.16z M263.53,155.21
		c0-6.37-0.01-12.3,0-18.24c0.02-7.29,0.03-7.23-7.25-7.09c-2.01,0.04-3.08,0.41-3.44,2.73c-0.74,4.88-1.89,9.7-2.89,14.54
		c-0.53,2.58-1.09,5.15-1.71,8.06C253.63,155.21,258.27,155.21,263.53,155.21z M197.5,154.86c10.94,2.07,12.11,1.33,14.25-8.43
		c0.03-0.12,0.08-0.23,0.11-0.36c1.08-5.26,2.16-10.52,3.33-16.22c-4.02,0-7.59-0.07-11.15,0.07c-0.59,0.02-1.51,0.92-1.65,1.55
		C200.71,139.17,199.15,146.89,197.5,154.86z"/>
</g>
</svg>
