<?xml version="1.0" encoding="utf-8"?>
<!-- Generator: Adobe Illustrator 27.5.0, SVG Export Plug-In . SVG Version: 6.00 Build 0)  -->
<svg version="1.1" id="Warstwa_1" xmlns="http://www.w3.org/2000/svg" xmlns:xlink="http://www.w3.org/1999/xlink" x="0px" y="0px"
	 viewBox="0 0 384 384" style="enable-background:new 0 0 384 384;" xml:space="preserve">
<style type="text/css">
	.st0{display:none;}
	.st1{display:inline;}
	.st2{display:inline;fill:#EF2222;}
</style>
<g id="pneumatyka" class="st0">
	<path class="st1" d="M384,235.91c-0.77,4.38-1.34,8.8-2.35,13.13c-7.18,30.68-25.73,51.82-54.41,64.29
		c-2.42,1.05-3.46,2.24-3.43,4.88c0.08,6.57-0.22,13.15-0.05,19.72c0.04,1.42,1.01,3.35,2.17,4.14c7.88,5.32,11.14,15.8,7.2,24.5
		c-2.57,5.67-7.37,8.32-13.38,8.45c-8.8,0.2-17.62,0.23-26.42-0.01c-8.65-0.23-14.07-6.08-14.43-14.79
		c-0.33-7.95,1.2-14.84,9.32-18.55c0.72-0.33,1.51-1.48,1.53-2.26c0.12-6.42,0.07-12.85,0.07-19.5c-19.3,0-38.07,0-57.46,0
		c0,4.49,0.28,8.67-0.06,12.81c-0.78,9.55-7.96,17.09-17.46,17.75c-7.89,0.55-15.85,0.41-23.77,0.19c-4.28-0.12-6.56-2.56-6.4-5.75
		c0.14-2.97,2.51-5,6.61-5.14c6.94-0.23,13.89-0.08,20.82-0.35c6.01-0.23,8.74-2.96,9.17-9.01c0.23-3.31,0.04-6.64,0.04-10.25
		c-26.15,0-52.11,0-78,0c0,6.37,0,12.62,0,19.47c3.43,0,7.08,0,10.72,0c3.1,0,6.21-0.08,9.3,0.06c3.73,0.17,6.24,2.45,6.33,5.49
		c0.08,2.85-2.18,5.35-5.84,5.51c-7.3,0.32-14.62,0.32-21.93,0.31c-2.45,0-3.81,0.72-5.19,3.04c-9.37,15.7-29.27,24.02-46.82,19.89
		c-18.14-4.26-33.02-20.95-34.91-38.74c-0.73-6.84,0.09-13.36,2.47-19.7c0.82-2.18,0.61-3.15-1.62-4.23
		c-29.7-14.35-47.53-37.97-51.66-70.55c-5.94-46.8,23.82-88.24,68.8-98.54c1.21-0.28,2.58-0.24,3.59-0.84
		c0.95-0.56,2.1-1.71,2.17-2.67c0.26-3.58,0.26-7.2,0.02-10.78c-0.07-1.02-1.22-2.02-2.01-2.92c-1.47-1.68-4.15-3.22-4.25-4.93
		c-0.09-1.7,2.15-3.8,3.79-5.25c1.99-1.75,3.83-8.92,2.25-11.01c-0.46-0.6-1.65-0.61-2.21-1.18c-1.46-1.51-3.52-3.03-3.85-4.82
		c-0.24-1.31,1.77-3.16,2.99-4.58c0.99-1.14,3.11-1.88,3.3-3.03c0.44-2.63,0.11-5.42-0.18-8.11c-0.06-0.54-1.41-0.85-1.98-1.45
		c-1.52-1.59-3.9-3.17-4.09-4.94c-0.15-1.48,2.03-3.71,3.7-4.75c1.8-1.12,2.63-2.07,2.64-4.26c0.1-16.08,8.06-23.9,24.1-23.87
		c0.73,0,1.46,0,2.88,0c0-3.55-0.04-6.96,0.01-10.37c0.05-3.1-0.07-6.23,0.34-9.28c0.94-6.95,5.23-11,12.2-11.17
		c9.42-0.23,18.86-0.26,28.27,0.03c7.96,0.25,12.6,5.47,12.64,13.54c0.03,4.59,0.13,9.19-0.12,13.76c-0.16,2.9,0.61,3.88,3.68,3.83
		c3.41-0.05,7.02,0.21,10.21,1.31c8.66,2.99,13.63,11.02,13.27,21.07c-0.1,2.9,0.57,4.46,3.34,5.71c1.43,0.64,3.03,3.01,2.9,4.46
		c-0.15,1.7-1.81,3.64-3.34,4.73c-1.51,1.07-3.54,1.33-3.01,3.85c0.62,2.94-1.75,6.73,3.06,8.52c1.65,0.61,3.53,3.2,3.53,4.89
		c0,1.67-1.88,4.2-3.54,4.87c-4.55,1.85-1.98,5.54-2.74,8.31c-0.62,2.25,0.95,3.04,2.7,4.12c1.57,0.97,3.58,3.22,3.36,4.58
		c-0.31,1.91-2.18,4.17-3.98,5.05c-1.92,0.94-2.62,1.69-2.49,3.73c0.19,2.97-0.06,5.97,0.24,8.92c0.1,0.94,1.37,2.51,2.12,2.51
		c19.57,0.14,39.14,0.11,59.18,0.11c0-5.24,0.21-10.17-0.15-15.06c-0.09-1.18-1.91-2.44-3.19-3.28
		c-11.44-7.47-18.58-17.79-20.3-31.4c-2.6-20.54,9.89-40.03,29.79-47.03c25.18-8.85,52.02,7.47,56.53,34.37
		c2.95,17.6-5.07,34.9-20.56,43.95c-2.1,1.23-2.99,2.49-2.84,4.96c0.2,3.33,0.2,6.72-0.17,10.03c-0.33,3.05,0.98,3.51,3.58,3.5
		c12.99-0.06,25.78,1.51,37.8,6.66c28.84,12.35,46.4,34.19,53.46,64.62c0.53,2.28,0.5,4.68,0.87,7c0.04,0.26,0.99,0.38,1.52,0.56
		C384,224.5,384,230.2,384,235.91z M125.35,150.9c-0.17,0.97-0.29,1.33-0.29,1.69c-0.02,46.24-0.05,92.49,0.05,138.73
		c0,1.49,1.07,3.18,2.09,4.42c2.67,3.24,5.95,6.03,8.31,9.46c1.92,2.79,3.93,3.89,7.27,3.88c38.06-0.1,76.12-0.07,114.18-0.08
		c1.56,0,3.11,0,4.81,0c0.08-1.5,0.17-2.47,0.17-3.44c0.01-50.33-0.02-100.67,0.07-151c0.01-3.02-0.93-3.71-3.8-3.71
		c-42.03,0.09-84.06,0.06-126.08,0.06C129.93,150.9,127.72,150.9,125.35,150.9z M273.04,151.05c-0.05,1.18-0.12,2.02-0.12,2.87
		c-0.08,50.71-0.14,101.42-0.25,152.13c0,2.02,0.5,2.96,2.71,2.86c3.59-0.15,7.2-0.23,10.78-0.04c2.92,0.15,3.82-0.82,3.79-3.81
		c-0.15-19.71-0.12-39.43-0.11-59.14c0-1.6,0.04-3.26,0.47-4.78c0.95-3.44,4.54-4.7,7.74-3.06c2.93,1.5,2.79,4.16,2.79,6.75
		c-0.01,19.71-0.07,39.43-0.11,59.14c0,1.32,0,2.65,0,3.92c19.7,2.31,49.91-17.26,62.66-40.94c14.54-27.01,12.96-59.99-7.5-85.95
		c-13.82-17.53-32.1-28.07-54.94-29.85c-0.17,1.11-0.27,1.47-0.27,1.83c0.1,20.09,0.22,40.17,0.3,60.26
		c0.01,1.73,0.35,3.84-0.49,5.08c-1.09,1.63-3.07,3.26-4.91,3.64c-2.32,0.47-4.77-0.68-5.3-3.51c-0.38-2.05-0.46-4.19-0.46-6.29
		c-0.03-17.98-0.02-35.96-0.02-53.94c0-2.31,0-4.63,0-7.18C283.99,151.05,278.72,151.05,273.04,151.05z M86.1,150.94
		c-4.23,0.71-8.26,1.09-12.13,2.07c-34.26,8.59-56.6,39.93-59.55,68.19c-3.51,33.54,15.53,67.94,46.57,80.99
		c1.75,0.74,2.78,0.73,4.08-0.84c4.91-5.93,10.92-10.43,18.28-12.89c2.3-0.77,2.87-2.13,2.87-4.44
		c-0.01-43.26,0.05-86.52,0.1-129.78C86.31,153.39,86.2,152.55,86.1,150.94z M89.36,92.26c7.86,0,15.15-0.06,22.44,0.03
		c3.86,0.05,6.4,2.24,6.44,5.26c0.04,3.15-2.26,5.43-6.13,5.61c-4.45,0.2-8.92,0.11-13.39,0.12c-9.91,0.02-9.91,0.02-9.11,10.07
		c0.01,0.1,0.11,0.2,0.39,0.66c0.96,0.05,2.15,0.17,3.35,0.16c6.07-0.01,12.15-0.12,18.22-0.08c4.36,0.03,6.89,2.24,6.77,5.66
		c-0.13,3.57-2.37,5.29-6.94,5.29c-7.27,0-14.54,0-21.7,0c0,5.2,0,9.94,0,14.56c28.83,0,57.27,0,85.66,0c0-4.97,0-9.62,0-14.57
		c-7.56,0-14.86,0.05-22.15-0.02c-3.76-0.04-6.03-1.97-6.22-5.02c-0.2-3.28,1.53-5.3,5.55-5.54c6.18-0.36,12.38-0.29,18.58-0.43
		c1.42-0.03,2.84-0.17,4.26-0.27c0.09-1.09,0.17-1.7,0.19-2.31c0.27-8.16,0.27-8.12-7.75-8.18c-5.45-0.05-10.89-0.15-16.33-0.4
		c-2.98-0.14-4.47-2.2-4.56-4.94c-0.1-2.97,1.66-4.88,4.57-5.46c1.32-0.26,2.72-0.16,4.08-0.17c6.54-0.01,13.07-0.01,19.8-0.01
		c0-3.98,0-7.48,0-11.18c-4.95,0-9.63,0.01-14.32,0c-3.1-0.01-6.21,0.11-9.29-0.13c-3.01-0.24-4.78-2.24-4.86-5.16
		c-0.08-2.73,1.36-4.77,4.28-5.23c1.82-0.29,3.68-0.47,5.53-0.49c6.16-0.06,12.32-0.02,18.4-0.02c1.79-10.38-2.2-16.02-11.8-16.12
		c-20.7-0.2-41.41,0.09-62.11-0.01c-9.23-0.04-13.4,6.43-11.24,16.21c1.78,0,3.62,0,5.47,0c5.7-0.01,11.43-0.29,17.09,0.14
		c1.85,0.14,4.2,1.76,5.14,3.38c0.74,1.28,0.26,4.1-0.76,5.34c-1.05,1.27-3.4,1.97-5.2,2.02c-6.44,0.19-12.89-0.11-19.33,0.04
		c-1.01,0.02-2.75,1.27-2.86,2.12C89.13,85.97,89.36,88.83,89.36,92.26z M234.9,83.86c0.01,18.89,14.05,33.1,32.68,33.08
		c18.18-0.02,32.77-14.79,32.64-33.03c-0.12-17.02-15.52-32.37-32.46-32.35C249.63,51.58,234.89,66.07,234.9,83.86z M97.01,151.07
		c0,2.3,0,4.37,0,6.45c0.02,37.42,0.06,74.83,0.06,112.25c0,4.34-0.23,8.67-0.15,13c0.02,0.99,0.79,2.71,1.42,2.82
		c5.19,0.85,10.43,1.39,15.59,2.02c0-45.54,0-91,0-136.54C108.04,151.07,102.76,151.07,97.01,151.07z M99.22,296.67
		c-18.58,0.03-33.67,15.06-33.64,33.52c0.03,18.59,15.29,33.77,33.9,33.7c18.28-0.06,33.36-15.18,33.39-33.46
		C132.9,311.52,118.08,296.65,99.22,296.67z M119.59,23.14c-2.22-0.01-3.01,1.02-2.95,3.22c0.13,4.46,0.18,8.93,0,13.39
		c-0.11,2.69,0.9,3.37,3.46,3.31c8.05-0.19,16.12-0.13,24.17-0.19c1.21-0.01,2.41-0.15,3.98-0.26c0-5.49-0.17-10.68,0.07-15.85
		c0.13-2.76-1.13-3.53-3.45-3.54 M307.27,351.47c0,0.06,0,0.11,0,0.17c-4.22,0-8.44-0.1-12.65,0.03c-4.05,0.13-4.74,1.07-4.76,5.7
		c-0.02,5.55,0.43,6.29,4.81,6.37c8.06,0.14,16.12,0.02,24.18,0.19c3.4,0.07,4.75-1.48,4.74-4.64c0-1.24,0.01-2.48-0.03-3.72
		c-0.08-2.83-1.32-4.28-4.39-4.14C315.21,351.61,311.24,351.47,307.27,351.47z M312.32,340.54c0-7.56,0-14.92,0-22.48
		c-4,0.42-7.74,0.81-11.42,1.2c0,7.41,0,14.29,0,21.29C304.83,340.54,308.49,340.54,312.32,340.54z M259.13,139.65
		c5.82,0,11.21,0,16.71,0c0-4.16,0-8.06,0-12.03c-5.66,0-11.11,0-16.71,0C259.13,131.67,259.13,135.58,259.13,139.65z"/>
	<path class="st1" d="M272.96,72.36c-1.09,3.63,0.08,6.28,3.2,8.8c3.05,2.47,1.63,7.35-2.29,7.95c-4.21,0.64-8.62,0.67-12.85,0.19
		c-1.54-0.17-3.56-2.37-4.01-4.02c-0.38-1.37,0.77-3.81,2.02-4.84c2.14-1.76,3.16-3.55,2.96-6.3c-0.19-2.58-0.1-5.19-0.02-7.78
		c0.1-3.26,2.06-5.01,5.11-5.29c3.08-0.28,4.85,1.58,5.31,4.51C272.73,67.77,272.77,70,272.96,72.36z"/>
	<path class="st1" d="M99.15,350.66c-11.57,0.05-20.46-9.01-20.45-20.84c0.01-11.24,9.33-20.3,20.81-20.23
		c10.92,0.06,20.26,9.54,20.27,20.57C119.79,341.37,110.49,350.61,99.15,350.66z M99.32,339.4c5.14-0.05,9.09-4.04,9.16-9.23
		c0.06-4.79-4.49-9.39-9.24-9.35c-5.4,0.05-9.41,4.04-9.43,9.37C89.78,335.47,93.89,339.45,99.32,339.4z"/>
</g>
<g id="e-mail" class="st0">
	<path class="st1" d="M253.78,259.65c-45.13,36.83-100.27,25.71-129.14-9.85c-27.96-34.43-27.44-82.09,3.1-116.45
		c30.78-34.64,81.42-38.19,118.88-11.21c0.36-1.07,0.74-2.03,1.02-3.02c2.82-10.08,10.25-15.96,18.9-14.96
		c9.25,1.07,16.15,9.25,16.2,19.7c0.12,20.72,0.04,41.44,0.04,62.15c0,15.14,0,30.27,0,45.41c0.01,13.62,9.41,25.18,22.2,27.31
		c13.69,2.28,25.44-4.84,29.81-18.71c14.4-45.72,8.88-89.06-17.51-129.05c-25.41-38.49-61.94-60.48-107.54-65.24
		c-56.52-5.9-102.72,14.5-136.71,60.21c-15.34,20.63-24.85,44.19-27.56,70.11c-4.32,41.35,6.6,78.24,32.18,110.93
		c18.73,23.93,42.99,39.76,71.84,48.54c39.75,12.09,78.06,7.91,114.84-11.21c2.64-1.37,5.17-2.98,7.88-4.17
		c8.83-3.88,18.99-0.19,23.08,8.24c4.31,8.89,1.08,18.69-7.53,23.62c-20.52,11.74-42.38,19.72-65.69,23.67
		c-34.75,5.9-68.38,1.34-100.29-12.97c-60.8-27.27-97.89-74-109.93-139.64C1.51,166.64,17.04,116.63,53.26,73.1
		c27.11-32.58,61.86-53.99,103.69-61.64c66.09-12.08,123,6.71,170.13,54.54c17.72,17.98,31,39.14,39.38,62.87
		c10.97,31.07,15.12,63.06,8.73,95.85c-2.39,12.28-4.79,24.66-10.75,35.8c-11.29,21.12-29.07,33.34-53.05,33.93
		c-24.22,0.6-42.68-10.88-55.52-31.37C255.18,261.96,254.49,260.82,253.78,259.65z M139.85,193.64
		c0.01,30.74,23.5,53.21,55.66,53.25c27.54,0.04,51.53-24.75,51.45-53.16c-0.09-30.72-23.07-53.88-53.47-53.89
		C163.21,139.84,139.83,163.29,139.85,193.64z"/>
</g>
<g class="st0">
	<path class="st1" d="M180.86,128.43c-0.86-0.98-2.13-2.5-3.49-3.95c-1.99-2.12-2.08-4.1,0.08-6.2c2.53-2.46,4.81-5.2,7.5-7.48
		c2.48-2.1,2.53-3.71,0.48-6.22c-3.51-4.28-6.89-8.72-9.86-13.39c-5.3-8.35-1.79-18.73,7.49-22.41c0.97-0.39,2.93,0.44,3.83,1.32
		c8.26,8.15,16.4,16.41,24.53,24.68c3.16,3.21,6.21,6.53,9.28,9.76c10.27-10.08,20.06-19.68,30.14-29.57
		c-0.86-0.98-1.61-1.91-2.44-2.76c-9.36-9.55-18.76-19.05-28.1-28.62c-4.76-4.88-4.76-5.33,0.09-10.23c1.58-1.6,3.39-3.03,5.27-4.26
		c3.93-2.56,8.14-2.89,12.08-0.22c5.31,3.6,10.42,7.51,15.62,11.29c0.89,0.64,1.79,1.26,3.31,2.33c1.22-1.49,2.17-3.03,3.46-4.19
		c6.94-6.21,13.33-6.09,19.95,0.47c10.58,10.47,21.09,21.01,31.59,31.56c6.13,6.17,12.69,12.02,18.15,18.75
		c14.01,17.25,27.57,34.87,41.18,52.44c3.08,3.97,5.95,8.17,8.37,12.56c4.11,7.48,3.2,15-1.81,21.66
		c-3.16,4.19-7.18,7.75-10.89,11.51c-1.7,1.72-3.48,2.24-5.47,0.09c-1.52-1.65-3.49-2.87-5.08-4.46
		c-18.24-18.33-36.47-36.67-54.61-55.1c-1.36-1.38-2.21-3.45-2.81-5.35c-1.11-3.58-5.25-5.45-7.65-3.04
		c-9.06,9.1-18.02,18.3-27.68,28.14c6.52,7.09,13.13,14.58,20.06,21.75c14.81,15.32,29.82,30.46,44.69,45.71
		c3.55,3.64,3.51,4.38-0.1,7.98c-3.03,3.02-5.99,6.2-9.38,8.77c-8.1,6.16-17.23,6.81-25.28,0.9
		c-19.68-14.46-40.38-27.73-56.69-46.32c-1.61-1.84-2.62-1.94-4.47-0.06c-14.37,14.52-28.86,28.93-43.36,43.31
		c-5.4,5.36-6.37,5.35-13.17,1.87c-0.86-0.44-2.71-0.27-3.35,0.37c-19.8,19.8-39.49,39.71-59.23,59.57
		c-7.56,7.61-14.33,16.36-22.97,22.45c-15.91,11.22-27.58,26.65-42,39.27c-5.58,4.89-12.83,5.84-18.29,0.97
		C21.12,346.29,12.8,337.97,5,329.25c-4.91-5.48-3.8-13.23,1.89-19.22c8.17-8.59,16.63-16.9,24.99-25.3c2.4-2.41,4.9-4.73,7.39-7.06
		c2.14-2,3.71-4.77,7.31-4.73c0.84,0.01,1.75-1.32,2.54-2.11c26.73-26.78,53.44-53.59,80.21-80.33c1.72-1.72,2.89-3.19,2.23-5.86
		c-1.09-4.4,1.64-7.37,4.46-10.2c12.91-12.96,25.83-25.91,38.69-38.91C176.82,133.4,178.65,130.99,180.86,128.43z M27.6,299.42
		c-6.34,6.65-11.9,12.1-16.98,17.96c-2.54,2.94-1.24,6.31,1.28,8.85c7.11,7.15,14.26,14.27,21.56,21.22
		c3.04,2.9,6.64,2.82,9.96,0.25c1.39-1.07,2.61-2.38,3.86-3.62c9.76-9.67,19.49-19.38,29.3-29.01c1.22-1.19,2.82-2,4.27-2.95
		c1.54-1.01,3.35-1.73,4.63-3c24.03-23.94,48.03-47.9,71.94-71.96c3.97-3.99,7.49-8.44,11.37-12.86
		c-10.02-9.91-20.78-20.55-31.4-31.05c-3.51,3.28-6.43,6.02-9.97,9.34c2.78,2.53,5.37,4.74,7.77,7.12c1.67,1.65,3.11,3.54,0.81,5.84
		c-2.23,2.23-4.06,1.03-5.85-0.67c-2.52-2.39-5.07-4.76-6.91-6.48c-4.01,3.33-7.57,6.29-12.32,10.23c3.35,2.75,6.05,4.82,8.58,7.09
		c1.97,1.77,2.28,3.9,0.34,5.96c-1.97,2.09-3.71,0.72-5.24-0.62c-1.99-1.74-3.75-3.74-5.75-5.47c-0.74-0.64-2.41-1.4-2.73-1.11
		c-3.22,2.98-6.55,5.96-9.01,9.52c-0.42,0.61,3.14,3.97,4.87,6.06c0.24,0.29,0.53,0.54,0.77,0.83c1.6,1.94,3.82,3.91,1.28,6.49
		c-2.76,2.8-4.86,0.36-6.7-1.43c-2.12-2.06-3.95-4.42-5.62-6.33c-4.21,4.21-7.63,7.63-11.05,11.04c2.41,2.55,5.09,4.92,7.13,7.75
		c0.8,1.12,0.82,3.67,0.07,4.84c-1.25,1.95-3.22,1.27-4.8-0.28c-2.59-2.54-5.26-5.01-7.62-7.25c-3.75,3.61-7.23,6.96-10.81,10.41
		c2.47,2.66,4.9,5.2,7.25,7.82c1.5,1.67,2,3.44,0.21,5.35c-1.9,2.02-3.53,1.28-5.17-0.3c-2.09-2.01-4.11-4.1-6.31-5.98
		c-0.68-0.58-2.28-1.1-2.74-0.74c-3.19,2.54-6.19,5.32-9.13,7.91c2.27,2.15,4.46,4.17,6.58,6.28c1.75,1.73,2.96,3.7,0.69,5.85
		c-2.26,2.14-3.96,0.21-5.51-1.17c-2.5-2.23-4.85-4.63-7.12-6.82c-2.77,2.6-5.12,5.05-7.74,7.19c-2.7,2.21-3.3,4.04-0.12,6.37
		c1.6,1.17,2.84,2.86,4.13,4.4c1.51,1.79,2.94,3.72,0.67,5.93c-2.21,2.16-4.29,1.01-5.93-0.71
		C32.15,305.17,30.19,302.54,27.6,299.42z M184.4,120.52c0.46,1.1,0.53,1.5,0.75,1.78c5.84,7.32,5.84,7.32-0.75,13.86
		c-0.18,0.18-0.36,0.35-0.54,0.53c-14.39,14.5-28.78,29-43.2,43.47c-1.73,1.73-2.66,3.2-0.5,5.37
		c13.01,13.03,25.97,26.1,38.89,39.21c2.19,2.22,4.02,2.62,6.24,0.05c1.72-2,3.76-3.73,5.63-5.6
		c13.74-13.72,27.45-27.48,41.24-41.16c4.18-4.15,6.42-3.64,9.08,1.62c0.9,1.78,1.68,3.78,3.06,5.11
		c5.27,5.05,10.47,10.26,16.24,14.69c11.4,8.74,23.14,17.03,34.79,25.44c8.57,6.19,15.34,5.59,22.84-1.83
		c4.6-4.55,4.49-4.45,0.11-9.26c-19.4-21.27-42.32-39.13-59.68-62.45c-5.95-7.99-14.3-14.18-21.45-21.29
		c-16.89-16.81-33.76-33.64-50.52-50.58c-2.38-2.4-3.69-2.09-5.62,0.37c-2.2,2.83-1.25,5.29,0.48,7.58
		c4.33,5.73,8.78,11.37,13.31,16.94c2.05,2.52,2.12,4.58-0.39,6.81C190.94,114.28,187.6,117.53,184.4,120.52z M363.43,179.61
		c11.51-7.54,14.86-17.41,6.49-27.68c-3.42-4.2-6.56-8.63-9.92-12.89c-9.2-11.66-18.45-23.29-27.67-34.94
		c-2.39-3.02-6.62-4.76-6.61-9.52c0-0.54-0.96-1.1-1.49-1.64c-15.19-15.13-30.41-30.24-45.57-45.4c-8.55-8.55-9.07-8.59-17.64-0.08
		c-4.67,4.64-4.74,4.64-9.9,0.55c-0.79-0.63-1.54-1.31-2.35-1.91c-4.74-3.55-9.47-7.13-14.26-10.6c-3.01-2.19-5.66-0.67-7.72,1.49
		c-2.36,2.48,0.79,3.61,1.8,5.21c0.33,0.52,0.9,0.87,1.35,1.32c23.74,23.71,47.48,47.42,71.21,71.15c0.62,0.62,1.63,1.37,1.6,2.02
		c-0.17,3.78,2.79,5.44,4.94,7.6c4.19,4.2,8.55,8.22,12.75,12.4C334.74,150.92,349,165.2,363.43,179.61z M288.84,112.76
		c-11.11-11.14-21.16-21.19-31.18-31.27c-1.78-1.79-2.63-0.54-3.89,0.75c-8.27,8.46-16.54,16.93-25.04,25.17
		c-2.03,1.97-2.3,2.92-0.21,4.97c8.74,8.53,17.29,17.24,25.94,25.85c1.37,1.37,2.89,2.6,4.33,3.9c-0.17-0.39-0.34-0.78-0.52-1.17
		C268.35,131.67,278.42,122.38,288.84,112.76z"/>
	<path class="st1" d="M213.91,122.91c2.72,1.47,4.98,2.17,6.54,3.63c6.26,5.84,12.49,11.74,18.36,17.96c4.69,4.97,4.3,9.3-1.1,14.87
		c-10.26,10.58-20.69,21-31.08,31.45c-4.71,4.73-9.47,9.42-14.28,14.04c-5.95,5.72-10.44,5.81-16.34,0.13
		c-5.26-5.07-10.47-10.21-15.42-15.57c-5.72-6.19-5.54-10.27,0.44-16.27c14.85-14.9,29.71-29.8,44.71-44.55
		C208.03,126.33,211.09,124.84,213.91,122.91z M184.17,202.03c1.06-0.85,2.1-1.56,2.98-2.43c15.3-15.2,30.56-30.43,45.87-45.61
		c1.71-1.69,1.74-3.03,0-4.74c-5.57-5.48-11.12-11-16.53-16.64c-1.88-1.96-3.25-1.73-4.99,0.02
		c-15.43,15.42-30.87,30.84-46.39,46.17c-2.2,2.17-1.79,3.69,0.2,5.59c5.48,5.22,10.85,10.54,16.3,15.79
		C182.32,200.85,183.21,201.34,184.17,202.03z"/>
</g>
<g class="st0">
	<path class="st1" d="M384,162.98c-2.59,3.59-6,5.45-10.51,4.92c-2.4-0.28-2.48,1.12-2.46,3c0.13,16.87,0.19,33.73,0.24,50.6
		c0.02,7.78-2.18,10.03-9.88,10.09c-6.57,0.05-13.14,0.06-19.71-0.07c-6.02-0.12-8.26-2.48-8.27-8.48
		c-0.02-16.87-0.01-33.73-0.01-50.6c0-1.32,0-2.65,0-4.16c-4.39,0-8.31,0-12.93,0c0,2.51,0,5.04,0,7.57
		c0.02,27.66,0.12,55.31,0.02,82.97c-0.09,22.23-7.19,41.59-24.25,56.58c-11.75,10.33-25.52,16.03-41.1,17.09
		c-8.4,0.57-16.83,0.85-25.25,0.87c-49.86,0.08-99.71,0.13-149.57-0.01c-18.88-0.06-36.72-3.99-51.57-16.68
		c-15.47-13.22-24.47-29.9-24.96-50.38c-0.63-26.52-0.74-53.06-0.74-79.6c0-17.73,3.78-34.43,15.37-48.61
		c11.71-14.32,26.47-23.35,44.93-25.79c3.82-0.5,5.94-1.94,6.76-5.85c0.71-3.36,1.7-6.84,3.42-9.76c1.15-1.95,3.69-4.08,5.78-4.28
		c6.14-0.57,12.38-0.45,18.55-0.15c4.41,0.22,6.23,2.25,6.36,6.65c0.2,6.69,0.11,13.39,0.11,20.08c0.02,21.21,0.03,42.42,0.04,63.62
		c0,8.3-2.51,10.8-10.91,10.85c-3.84,0.02-7.69,0.07-11.53-0.01c-5.27-0.11-7.38-1.61-9.17-6.51c-1.23-3.37-2.4-6.77-3.38-10.21
		c-1.24-4.34-4.64-2.22-7.14-2.43c-2.83-0.24-2.12,2.19-2.13,3.75c-0.16,27.16-0.32,54.32-0.38,81.48
		c-0.02,8.12,1.93,10.12,10.07,10.27c6.44,0.12,12.9-0.18,19.34-0.18c54.2,0,108.4,0.02,162.59,0.03c10.09,0,11.75-1.52,11.76-11.54
		c0.05-28.9-0.05-57.79,0.06-86.69c0.01-3.23-1.01-4.01-4.06-3.75c-3.44,0.29-6.94,0.14-10.41-0.05c-2.66-0.15-4.35,0.41-4.35,3.51
		c0.01,3.27-1.59,4.47-4.77,3.29c-0.46-0.17-0.97-0.21-1.46-0.26c-3.79-0.43-7.72-0.71-6.28-6.49c-2.57,0-4.67,0.17-6.73-0.04
		c-3.68-0.36-6.37,0.1-6.3,4.83c0.01,0.8-1.98,1.93-3.24,2.34c-0.93,0.3-2.14-0.46-3.25-0.52c-4.04-0.24-7.36-1.08-5.49-6.61
		c-3.81,0-7.14-0.18-10.42,0.11c-0.95,0.08-2.12,1.33-2.6,2.33c-0.62,1.29-0.64,2.87-1.06,5.01c-3.78-0.64-7.45-1.26-10.94-1.85
		c-0.28-0.5-0.44-0.69-0.52-0.92c-0.56-1.56-0.71-4.09-1.73-4.52c-2.99-1.24-8.15,0.49-9.24,2.57c-2.86,5.49-5.74,10.97-8.37,16.58
		c-2.24,4.76-5.82,6.77-10.98,6.55c-4.09-0.17-8.19,0.11-12.27-0.13c-6.47-0.37-8.9-2.94-8.91-9.39
		c-0.06-27.53-0.08-55.06-0.03-82.59c0.01-6.8,1.98-8.92,8.77-9.3c4.94-0.27,9.92,0.05,14.87-0.1c4.2-0.13,6.68,2,8.38,5.52
		c2.75,5.68,5.42,11.41,8.44,16.95c0.71,1.31,2.62,2.63,4.07,2.74c4.93,0.38,9.91,0.15,14.87,0.28c2.13,0.06,3.02-0.62,3.31-2.89
		c0.63-4.8,0.79-4.78,5.59-3.69c0.6,0.14,1.2,0.3,1.81,0.43c4.87,1.05,4.87,1.05,5.4,6.13c3.24,0,6.56,0.19,9.83-0.12
		c0.92-0.09,2.02-1.49,2.47-2.54c0.57-1.31,0.56-2.88,0.89-4.91c3.66,0.67,7.23,0.96,10.5,2.12c1.06,0.38,1.3,3.04,2.2,5.42
		c2.95,0,6.64,0.28,10.22-0.19c0.89-0.12,1.9-2.59,2.1-4.08c0.36-2.62,1.26-3.54,3.88-2.62c1.5,0.53,3.12,0.86,4.72,0.99
		c2.45,0.2,3.96,0.94,3.63,3.83c-0.27,2.44,1.63,2.48,3.27,2.28c1.66-0.2,4.09,0.61,4.15-2.38c0.05-2.73-0.09-5.46,0.01-8.18
		c0.22-5.91,2.56-8.66,8.35-8.76c13.27-0.22,26.54-0.21,39.81-0.02c5.84,0.09,8.01,2.43,8.45,8.19c0.2,2.59,0.21,5.21,0.04,7.8
		c-0.16,2.47,0.79,3.32,3.21,3.21c3.18-0.15,6.37-0.04,9.98-0.04c0-2.05,0-3.5,0-4.95c0-16.37,0-32.74,0-49.11
		c0-6.46,2.25-9.34,8.61-9.67c7.3-0.37,14.64-0.32,21.94-0.03c4.94,0.2,7.35,3.38,7.35,8.94c0,16.87-0.01,33.73-0.22,50.6
		c-0.04,3.11,0.46,4.72,3.96,4.31c3.88-0.45,6.39,2.12,8.96,4.46C384,135.69,384,149.33,384,162.98z M288.75,187.49
		c0-3.63,0.12-6.72-0.04-9.81c-0.12-2.29,0.8-3.07,3-3.07c4.34,0,8.68-0.27,13.01-0.21c2.43,0.03,3.21-0.84,3.2-3.26
		c-0.09-19.1-0.1-38.2-0.03-57.3c0.01-2.35-0.83-2.95-3.04-2.94c-8.56,0.06-17.11,0.05-25.67-0.11c-2.63-0.05-3.31,0.77-3.31,3.41
		c0.1,46.01,0.09,92.03,0.06,138.04c0,4.33-0.21,8.67-0.5,13c-0.37,5.55-3.21,9.73-7.53,13.1c-4.95,3.87-10.76,4.17-16.61,4.17
		c-59.91,0.05-119.81,0.06-179.72,0.05c-2.35,0-4.71-0.23-7.04-0.55c-10.06-1.35-16.85-8.76-16.89-18.96
		c-0.11-31.25-0.05-62.51-0.02-93.76c0-4.09,2.16-6.8,6.12-7.07c6.05-0.4,12.13-0.44,18.2-0.41c3.78,0.02,6.17,2.11,7.24,5.78
		c1.04,3.56,2.32,7.05,3.29,10.63c0.6,2.2,1.86,3.01,4.02,2.82c1.8-0.16,3.61-0.25,5.52-0.37c0.07-1.35,0.17-2.33,0.17-3.3
		c0.01-23.07,0.01-46.13-0.02-69.2c0-1.59,0.76-3.99-2.03-3.82c-2.61,0.16-6.14-2.08-7.51,2.32c-1.11,3.54-2.35,7.04-3.41,10.6
		c-1.18,3.94-3.83,5.89-7.83,6.27c-3.21,0.31-6.44,0.5-9.6,1.11c-26.11,5.04-45.33,26.76-46.02,53.39
		c-0.7,27.14-0.42,54.32-0.37,81.47c0.01,5.3,0.48,10.68,1.47,15.89c4.26,22.39,25.43,45.41,57.27,45.22
		c57.05-0.33,114.1-0.06,171.16-0.26c7.25-0.03,14.8-0.32,21.7-2.3c25.61-7.34,40.98-29.3,40.92-57.16
		c-0.05-23.44-0.08-46.88-0.14-70.32c0-0.95-0.16-1.91-0.26-3.11C301.26,187.49,295.23,187.49,288.75,187.49z M320.51,130.05
		c0,7.91,0.08,15.22-0.04,22.53c-0.04,2.44,1.07,2.87,3.16,2.85c14.88-0.1,29.76-0.11,44.65-0.18c0.95,0,1.9-0.2,3.03-0.33
		c0-7.32-0.14-14.38,0.07-21.43c0.08-2.9-0.94-3.52-3.64-3.5c-13.77,0.12-27.53,0.06-41.3,0.06
		C324.61,130.05,322.78,130.05,320.51,130.05z M143.03,180.41c6.53,2.15,9.27-0.82,12.31-6.1c5.67-9.84,6.09-20.11,6.63-30.99
		c0.66-13.38-1.64-25.43-8.99-36.55c-0.27-0.41-0.32-1-0.65-1.32c-0.49-0.49-1.12-1.12-1.71-1.15c-2.53-0.13-5.06-0.05-7.58-0.05
		C143.03,130.03,143.03,155.27,143.03,180.41z M345.78,66.34c0,16.81-0.02,33.03,0.09,49.26c0,0.62,1.29,1.73,2.03,1.77
		c2.84,0.17,5.72,0.18,8.54-0.15c0.86-0.1,2.23-1.48,2.24-2.29c0.13-15.37,0.12-30.75-0.02-46.12c-0.01-0.83-1.39-2.29-2.23-2.36
		C353.13,66.18,349.79,66.34,345.78,66.34z M345.89,218.92c3.47,0,6.68-0.15,9.86,0.05c2.49,0.16,3.13-0.69,3.11-3.15
		c-0.13-12.76-0.07-25.53-0.08-38.29c0-9.52,0-9.41-9.36-9.51c-2.77-0.03-3.61,0.73-3.59,3.53
		C345.95,187.14,345.89,202.73,345.89,218.92z M222.51,155.58c3.22,0,5.69-0.21,8.11,0.05c3.6,0.39,5.26-0.79,5.84-4.6
		c1.04-6.9,2.68-13.72,4.22-21.31c-4.27,0-7.94-0.07-11.59,0.07c-0.61,0.02-1.57,0.9-1.7,1.53
		C225.74,139.14,224.22,146.99,222.51,155.58z M174.38,130.16c0,6.27,0,12.31,0,18.34c0,7.49,0.5,7.98,7.89,6.86
		c0.94-0.14,2.29-1.23,2.48-2.09c1.69-7.57,3.17-15.19,4.77-23.11C184.38,130.16,179.63,130.16,174.38,130.16z M263.53,155.21
		c0-6.37-0.01-12.3,0-18.24c0.02-7.29,0.03-7.23-7.25-7.09c-2.01,0.04-3.08,0.41-3.44,2.73c-0.74,4.88-1.89,9.7-2.89,14.54
		c-0.53,2.58-1.09,5.15-1.71,8.06C253.63,155.21,258.27,155.21,263.53,155.21z M197.5,154.86c10.94,2.07,12.11,1.33,14.25-8.43
		c0.03-0.12,0.08-0.23,0.11-0.36c1.08-5.26,2.16-10.52,3.33-16.22c-4.02,0-7.59-0.07-11.15,0.07c-0.59,0.02-1.51,0.92-1.65,1.55
		C200.71,139.17,199.15,146.89,197.5,154.86z"/>
</g>
<g class="st0">
	<path class="st1" d="M193.56,14.81c93.38,0.5,174.69,74.04,178.26,172.59c3.5,96.66-71.79,180.99-172.89,184.43
		c-97.16,3.31-179.87-72.89-183.8-171.24C10.99,97.49,94.41,15.33,193.56,14.81z M348.27,195.84
		c2.49-81.39-62.83-156.64-154.09-157.31c-85.02-0.62-153.99,67.3-155.66,151.8c-1.69,85.54,66.37,158.65,156.12,158
		C283.47,347.7,348.12,275.57,348.27,195.84z"/>
	<path class="st1" d="M205.34,266.98c0,2.85,0.15,6.08-0.03,9.28c-0.51,8.96-9.04,14.91-16.59,11.58c-4.64-2.05-6.99-5.8-7.15-10.83
		c-0.11-3.46-0.02-6.93-0.02-9.86c-5.62-2.33-11.06-4.11-16.05-6.74c-11.26-5.95-17.84-15.42-19.54-28.13
		c-0.67-5,0.43-9.37,4.74-12.5c3.86-2.8,7.92-3.22,12.23-1.05c3.61,1.82,5.41,4.88,6.29,8.7c2.55,11.07,6.18,14.69,17.45,16.33
		c7.67,1.11,15.39,0.99,22.47-2.92c10.2-5.63,11.33-20.15,1.52-26.53c-6.25-4.06-13.47-6.67-20.37-9.67
		c-7.93-3.46-16.23-6.14-23.94-10.03c-20.2-10.2-30.36-44.97-7.52-63.68c5.85-4.8,12.62-7.85,19.92-9.58
		c2.37-0.56,2.86-1.59,2.85-3.78c-0.01-3.33,0.07-6.71,0.64-9.98c0.9-5.13,5.8-9.18,10.64-9.31c5.06-0.13,10.49,3.72,11.6,8.79
		c0.71,3.22,0.82,6.63,0.81,9.95c-0.01,2.6,0.54,3.78,3.42,4.49c12.22,3,22.89,8.65,28.35,20.72c2.14,4.73,3.34,10.1,3.86,15.29
		c0.59,5.95-4.47,10.97-10.62,11.82c-5.22,0.72-10.67-3.15-12.24-8.73c-0.3-1.07-0.67-2.16-0.73-3.26
		c-0.32-5.98-3.86-9.58-9.01-11.62c-9.6-3.81-19.39-3.91-29.02-0.14c-10.15,3.97-13.3,16.7-5.7,24.75
		c3.34,3.53,8.11,6.06,12.66,8.02c9.65,4.15,19.79,7.19,29.36,11.49c18.5,8.3,28.3,26.93,24.77,46.13
		c-2.15,11.69-8.98,20.02-19.48,25.17C216.08,263.53,210.78,264.98,205.34,266.98z"/>
</g>
<g class="st0">
	<path class="st1" d="M50.6,384c-14.25-13.76-28.65-27.36-42.67-41.34c-6.63-6.61-6.2-11.93,0.42-18.65
		c4.96-5.04,10.05-9.95,14.97-15.02c4.33-4.46,9.3-5.49,14.88-2.97c1.97,0.89,2.99,0.5,4.41-1.02c3.45-3.73,7.1-7.28,10.79-10.77
		c3.08-2.92,5.86-3.12,8.18-0.86c2.51,2.44,2.45,5.42-0.34,8.52c-2.07,2.3-4.25,4.51-6.49,6.65c-2.15,2.05-4.44,3.95-6.53,5.79
		c8.26,8.4,15.95,16.22,23.77,24.18c29.57-29.79,59.17-59.61,88.52-89.18c-7.43-7.33-15.24-15.03-24.19-23.86
		c-0.46,0.78-1.09,2.54-2.28,3.74c-16.61,16.71-33.29,33.36-49.99,49.98c-1.48,1.48-3.1,2.87-4.82,4.05
		c-2.44,1.69-4.79,1.06-6.61-1.08c-1.79-2.11-2.02-4.51-0.26-6.8c0.9-1.17,2.01-2.19,3.06-3.24c17.29-17.26,34.57-34.53,51.9-51.75
		c1.38-1.37,2.04-2.29,0.79-4.33c-4.08-6.67-3.42-11.36,2.02-17.06c1.69-1.77,3.51-3.41,4.92-4.76c-3.23-4.08-6.8-7.49-8.99-11.62
		c-2.57-4.86,0.21-9.32,4.16-14.49c-1.83-1.32-3.97-2.47-5.63-4.12c-27.56-27.51-55.04-55.1-82.63-82.58
		c-0.75-0.75-2.71-1.03-3.73-0.62c-5.85,2.33-10.8,1.49-15.22-3.16C18.03,72.42,12.7,67.56,7.83,62.28
		c-6.2-6.71-6.01-12.08,0.36-18.49C19.98,31.92,31.81,20.07,43.7,8.3c6.98-6.9,12.24-6.91,19.19-0.13
		c5.33,5.19,10.54,10.5,15.78,15.78c3.59,3.62,4.85,7.92,2.51,12.55c-1.68,3.32-0.57,4.9,1.88,7.27
		C95.47,55.74,107.6,68,119.77,80.2c15.77,15.8,31.48,31.65,47.31,47.39c0.73,0.73,2.86,1.14,3.58,0.63
		c6.03-4.21,12.44-2.96,18.02,2.78c1.47,1.51,2.95,3,4.85,4.93c6.41-7.83,13.29-14.72,24.15-6.36c2.55-2.45,5.06-4.8,7.49-7.22
		c26.8-26.69,53.61-53.37,80.32-80.15c0.8-0.8,1.09-2.93,0.64-4.04c-2.31-5.69-1.64-10.56,2.86-14.92
		c5.43-5.26,10.65-10.74,16.08-16.01c5.06-4.91,10.99-5.2,16.34-0.69c2.35,1.98,4.36,4.38,6.36,6.74c2.03,2.4,1.08,4.68-0.86,6.59
		c-1.86,1.83-4.11,1.83-6.08,0.28c-2.41-1.91-4.6-4.1-6.88-6.16c-6.09,6.21-12.03,12.28-17.76,18.13
		c12.81,12.74,25.79,25.65,38.76,38.54c5.47-5.82,11.37-12.1,17.64-18.77c-3.27-3.17-7.48-7.19-11.59-11.29
		c-1.3-1.3-2.98-2.71-3.36-4.33c-0.41-1.75-0.14-4.6,1.01-5.52c1.35-1.08,4.87-1.57,5.85-0.64c6.18,5.86,12.26,11.92,17.68,18.49
		c2.87,3.48,1.74,8.2-1.16,11.36c-6.35,6.94-13.06,13.57-19.88,20.05c-2.94,2.79-6.82,2.56-10.55,1.37
		c-1.41-0.45-2.77-1.05-4.04-1.53c-29.85,29.67-59.63,59.26-89.56,89c9.05,11.06,2.06,17.91-6.02,24.76
		c7.63,6.69,14.69,13.46,6.11,24.18c2.27,2.17,4.52,4.26,6.69,6.42c26.84,26.82,53.69,53.64,80.47,80.53
		c1.66,1.67,2.96,2.09,5.13,1.02c4.66-2.29,9.32-2.01,13.07,1.73c6.32,6.3,12.41,12.82,18.46,19.37c1.31,1.42,2.06,3.35,3.07,5.04
		c0,0.99,0,1.98,0,2.98c-1.96,2.95-3.48,6.33-5.94,8.76c-13.77,13.58-27.77,26.93-41.69,40.36c-1.98,0-3.97,0-5.95,0
		c-0.16-0.33-0.25-0.74-0.5-0.97c-6.96-6.48-14.02-12.86-20.89-19.44c-4.41-4.23-5.54-9.29-2.53-14.85
		c1.04-1.93,0.37-3.02-1.07-4.44c-23.37-23.09-46.66-46.25-70-69.37c-5.88-5.83-11.9-11.52-17.99-17.41
		c-10.25,8.62-17.29,1.84-23.97-6.16c-1.13,1.18-1.98,2.06-2.81,2.95c-7.54,8.1-10.58,8.67-20.71,4.18
		c-0.7-0.31-2.13,0.07-2.72,0.65c-3.47,3.36-6.75,6.92-10.16,10.33c-25.17,25.15-50.37,50.26-75.45,75.49
		c-0.76,0.76-0.87,2.9-0.4,4.02c2.03,4.82,1.95,9.43-1.82,13.09c-7.69,7.49-15.7,14.65-23.58,21.94C54.07,384,52.33,384,50.6,384z
		 M250.38,207.75c-3.49-4.25-9.3-7.38-9.33-14.2c-0.04-6.99,6.63-9.71,9.32-14.12c-14.34-14.46-28.44-28.68-42.62-42.98
		c-4.44,3.38-7.35,9.44-14.2,9.57c-7.07,0.14-9.88-6.36-14.31-9.37c-14.29,14.33-28.42,28.5-42.75,42.87
		c0.53,0.62,1.34,1.71,2.29,2.66c9.46,9.57,9.48,13.35,0.07,22.76c-3.43,3.43-3.48,3.48,0.03,6.98
		c11.14,11.11,22.32,22.19,33.5,33.26c1.92,1.9,3.9,3.72,6.11,5.83c2.03-1.93,3.79-3.63,5.59-5.29c6.92-6.35,12.04-6.29,18.62,0.34
		c1.7,1.72,3.15,3.69,4.27,5.02C221.91,236.17,236.08,222.02,250.38,207.75z M160.79,138.05c-29.69-29.88-59.35-59.73-88.78-89.35
		c-7.8,7.84-15.53,15.6-23.23,23.33c29.61,29.6,59.3,59.29,88.69,88.68C145.37,153.04,153.31,145.32,160.79,138.05z M226.4,249.4
		c29.31,29.56,58.91,59.4,88.31,89.05c7.98-7.98,15.74-15.75,23.25-23.26c-29.6-29.58-59.3-59.28-88.93-88.9
		C241.56,233.92,233.88,241.76,226.4,249.4z M225.79,137.96c0.76,0.84,1.52,1.78,2.37,2.63c5.95,5.97,12.05,11.8,17.83,17.93
		c2.38,2.52,3.75,2.47,6.19,0.02c26.04-26.21,52.18-52.32,78.33-78.43c2.71-2.7,5.64-5.18,8.45-7.75c-8.42-8.3-16.23-16-23.93-23.59
		C285.49,78.29,255.86,107.91,225.79,137.96z M32.04,71.39c13.3-13.48,26.21-26.56,39.38-39.9c-5.95-5.69-12.17-11.64-18.26-17.46
		c-12.91,12.96-26,26.09-38.68,38.82C20.18,58.87,26.01,65.03,32.04,71.39z M32.38,315.79c-6.21,6.14-12.23,12.11-17.78,17.6
		c12.84,13.13,25.78,26.35,38.44,39.3c6.18-6.12,12.27-12.15,18.01-17.83C58.16,341.83,45.29,328.83,32.38,315.79z M355.43,315.92
		c-13.34,13.03-26.53,25.9-39.31,38.38c5.91,6.27,11.75,12.45,17.43,18.47c13.17-13.19,26.26-26.29,39.36-39.4
		C367.06,327.52,361.03,321.51,355.43,315.92z"/>
	<path class="st1" d="M172.09,192.89c0.07-11.25,9.86-20.76,21.48-20.84c11.62-0.08,21.56,10.07,21.32,21.78
		c-0.24,11.63-10.12,21.21-21.7,21.04C181.32,214.69,172.02,205,172.09,192.89z M203.52,193.45c0.01-5.53-4.65-10.12-10.2-10.04
		c-5.3,0.08-9.97,4.76-9.95,9.98c0.03,5.77,4.4,10.18,10.05,10.14C199.19,203.49,203.51,199.18,203.52,193.45z"/>
</g>
<g class="st0">
	<path class="st1" d="M193.7,27.07c87.19-0.47,166.93,70.91,166.14,167.78c-0.75,92.47-74.9,165.96-168.78,165.16
		C102.8,359.25,25.64,286.59,27.1,191.13C28.56,95.23,107.53,26.92,193.7,27.07z M336.35,192.82
		c0.41-74.58-59.99-143.53-146.28-142.23C115.74,51.71,48.14,113.4,50.6,198.51c2.14,74.05,62.91,139.33,145.75,137.87
		C278.39,334.94,337.54,267.09,336.35,192.82z"/>
	<path class="st2" d="M193.93,211.02c-5.65,5.36-11.06,10.45-16.42,15.57c-8.15,7.79-16.19,15.71-24.46,23.39
		c-4.28,3.97-9.06,4.35-13.63,1.71c-4.13-2.39-6.59-7.05-5.21-11.66c0.84-2.81,2.68-5.59,4.76-7.72
		c11.61-11.88,23.43-23.56,35.17-35.32c0.95-0.95,1.81-1.99,3.03-3.33c-1.7-1.56-3.28-2.88-4.72-4.34
		c-12.42-12.65-24.84-25.3-37.22-37.99c-3.18-3.26-4.39-7.16-3.01-11.61c2.28-7.36,10.96-10.46,17.11-5.75
		c4.01,3.06,7.42,6.92,11.01,10.5c10.37,10.32,20.69,20.69,31.04,31.03c0.6,0.6,1.29,1.13,2.68,2.34
		c4.79-5.01,9.5-10.04,14.33-14.95c8.18-8.31,16.45-16.52,24.65-24.8c3.64-3.68,7.9-5.17,12.84-3.39
		c7.11,2.55,9.55,11.24,4.78,17.55c-2.67,3.54-5.86,6.73-9.02,9.87c-9.24,9.16-18.55,18.25-27.9,27.31
		c-4.25,4.12-4.27,4.17-0.08,8.35c12.38,12.34,24.77,24.68,37.01,37.15c1.85,1.88,3.44,4.31,4.33,6.78
		c1.54,4.29-0.3,9.16-3.74,11.59c-3.95,2.79-10.55,3-14.35-0.01c-3.39-2.68-6.52-5.72-9.58-8.78
		c-10.51-10.54-20.92-21.16-31.39-31.73C195.27,212.06,194.46,211.47,193.93,211.02z"/>
</g>
<g class="st0">
	<path class="st1" d="M192.36,52.93c31.95,0,63.91,0.1,95.86-0.09c6.2-0.04,10.41,1.99,14.04,7.14
		c18.87,26.77,38.04,53.34,57.1,79.98c0.4,0.56,0.8,1.11,1.18,1.68c4.46,6.67,4.39,8.74-1.14,14.65
		c-20.32,21.75-40.73,43.41-61.05,65.16c-26.75,28.63-53.41,57.34-80.17,85.97c-5.97,6.38-12.13,12.58-18.23,18.84
		c-6.29,6.46-9.53,6.59-15.66,0.16c-14.89-15.61-29.69-31.3-44.49-47.01c-26.68-28.33-53.37-56.65-79.99-85.04
		c-11.77-12.55-23.39-25.23-35.03-37.9c-5.73-6.23-5.91-8.36-0.94-15.33c19.34-27.11,38.83-54.11,58.05-81.3
		c3.55-5.03,7.81-6.94,13.79-6.91c32.23,0.14,64.45,0.07,96.68,0.07C192.36,52.96,192.36,52.94,192.36,52.93z M247.53,156.68
		c-37.28,0-74.02,0-111.19,0c0.39,1.31,0.66,2.46,1.08,3.55c1.97,5.23,4.05,10.41,5.95,15.67c1.23,3.4,1.32,6.73-1.78,9.36
		c-4.27,3.64-10.01,2.48-12.5-3.03c-3.26-7.19-6.31-14.52-8.81-22c-1.03-3.09-2.43-3.65-5.23-3.64
		c-21.57,0.08-43.15,0.04-64.72,0.05c-0.86,0-1.73,0.18-3.17,0.35c40.5,43.19,80.57,85.92,120.64,128.65
		c-0.55-4.32-1.88-8.01-3.24-11.69c-2.98-8.05-6.05-16.07-8.91-24.16c-1.3-3.68,0.47-6.46,3.61-8.22c3.33-1.87,6.7-1.57,9.29,1.37
		c1.31,1.49,2.24,3.43,2.97,5.3c5.78,14.86,11.46,29.76,17.2,44.63c0.9,2.33,1.96,4.6,3.26,7.63
		C210.62,252.25,228.91,204.89,247.53,156.68z M336.37,157.65c-0.87-0.44-1.21-0.76-1.55-0.76c-22.38-0.16-44.76-0.34-67.14-0.28
		c-1.33,0-3.33,1.73-3.87,3.1c-15.85,40.6-31.55,81.26-47.27,121.91c-0.49,1.27-0.93,2.56-1.39,3.84c0.32,0.17,0.64,0.34,0.97,0.51
		C256.14,243.27,296.16,200.56,336.37,157.65z M141.15,140.05c34.21,0,67.73,0,101.99,0c-17.27-22.4-34.03-44.13-51.1-66.26
		C174.88,96.13,158.21,117.83,141.15,140.05z M126.88,132.71c16.4-21.26,32.31-41.88,48.78-63.24c-24.89,0-48.76,0-73.24,0
		C110.53,90.43,118.5,111.06,126.88,132.71z M281.11,69.59c-24.3,0-47.9,0-72.46,0c16.39,21.37,32.2,41.97,48.32,62.99
		C265.19,111.14,273.07,90.56,281.11,69.59z M295.34,77.61c-8.18,21.26-16.05,41.7-24.05,62.49c23.05,0,45.53,0,68.9,0
		C325.11,119.09,310.55,98.8,295.34,77.61z M44.12,139.94c23.23,0,45.57,0,68.08,0c-7.9-20.89-15.61-41.27-23.67-62.59
		C73.31,98.79,58.86,119.16,44.12,139.94z"/>
	<path class="st1" d="M157.62,214.21c-0.05,4.13-3.42,7.47-7.55,7.49c-4.51,0.02-8.17-3.58-8.08-7.95c0.09-4.24,3.73-7.71,7.99-7.61
		C154.01,206.24,157.66,210.1,157.62,214.21z"/>
</g>
<g class="st0">
	<path class="st1" d="M21.58,384c-0.6-0.62-1.09-1.58-1.82-1.82C4.46,377.11-1.4,360.17,7.43,346.67
		c4.68-7.15,11.78-9.42,19.69-10.17c1.48-0.14,2.97-0.13,4.46-0.13c108.69-0.01,217.38-0.01,326.08,0c12.27,0,20.88,5.6,24.37,15.74
		c0.59,1.72,1.31,3.4,1.97,5.1c0,1.49,0,2.98,0,4.47c-2.28,11.45-8.56,19.18-20.28,21.87c-0.21,0.05-0.37,0.3-0.55,0.46
		C249.3,384,135.44,384,21.58,384z"/>
	<path class="st1" d="M218.13,209.88c1.51-1.57,3.01-3.16,4.54-4.71c12.51-12.57,24.97-25.19,37.55-37.68
		c7.44-7.38,16.27-9.8,26.24-6.05c14.14,5.32,19.46,22.94,10.83,35.55c-1.39,2.03-3.05,3.92-4.8,5.67
		c-26.64,26.68-53.32,53.31-79.96,79.99c-5.27,5.28-11.22,8.93-18.9,9.05c-5.26,0.08-10.04-1.53-14.19-4.7
		c-2.35-1.8-4.5-3.89-6.6-5.99c-26.31-26.48-52.59-52.99-78.88-79.47c-4.48-4.51-7.99-9.56-8.42-16.1
		c-0.66-9.97,3.4-17.71,12.06-22.59c8.55-4.81,17.16-4.07,25.25,1.38c2.24,1.51,4.21,3.47,6.12,5.4
		c12.38,12.52,24.73,25.07,37.06,37.64c0.94,0.96,1.68,2.11,2.52,3.17c0.37-0.17,0.74-0.33,1.11-0.5c0-1.28,0-2.55,0-3.83
		c0-58.79-0.06-117.58,0.13-176.37c0.01-4.69,1.1-9.64,2.82-14.02c3.72-9.46,16.47-13.67,24.51-12.21
		c10.01,1.82,17.58,8.57,19.33,18.47c0.54,3.03,0.81,6.15,0.81,9.23c0.05,57.92,0.03,115.84,0.03,173.76c0,1.47,0,2.94,0,4.42
		C217.58,209.56,217.86,209.72,218.13,209.88z"/>
</g>
<g class="st0">
	<path class="st1" d="M103.94,122.01c-12.98,0-25.99,0.04-39-0.02c-6.36-0.03-11.94-1.99-16.07-7.12c-0.54-0.67-1.32-1.35-1.47-2.12
		c-0.93-4.8-4.67-6.51-8.55-8.29c-4.5-2.07-8.83-4.48-13.3-6.63c-3.28-1.57-4.75-4.03-4.75-7.67c0.02-14.29-0.77-12.56,10.88-18.4
		c1.88-0.94,3.73-1.96,5.64-2.84c4.51-2.08,8.48-4.33,10.52-9.55c1.72-4.4,5.96-7.14,10.69-7.84c4.99-0.73,10.11-0.91,15.16-0.77
		c3.89,0.1,6.24,2.65,6.24,5.64c0,3.35-2.59,5.79-6.75,6.01c-3.46,0.18-6.95,0.01-10.42,0.07c-4.04,0.07-6.13,1.9-6.16,5.8
		c-0.09,11.78-0.1,23.57,0,35.35c0.04,4.2,2.13,6.4,6.11,6.43c13.64,0.09,27.28,0.03,41.2,0.03c0-15.81,0-31.48,0-47.32
		c-2.1-0.28-4.28-0.45-6.42-0.88c-2.7-0.53-4.51-2.13-4.64-5.02c-0.14-3.02,1.45-5.56,4.34-5.51c5.94,0.09,7.47-3.33,9.33-8.16
		c2.95-7.7,9.96-10.3,17.76-10.46c8.8-0.18,17.62,0.02,26.42-0.12c1.2-0.02,3-0.74,3.48-1.67c3.54-6.81,9.5-9.97,16.66-10.05
		c24.68-0.27,49.37-0.16,74.06,0c2.15,0.01,4.7,1.03,6.36,2.42c2.74,2.29,1.45,7.13-2.14,8.5c-1.79,0.68-3.87,0.83-5.82,0.83
		c-24.07,0.05-48.13,0.03-72.2,0.04c-5.69,0-7.33,1.61-7.33,7.28c-0.01,30.64-0.02,61.27,0,91.91c0,5.92,1.99,7.98,7.7,7.98
		c48.13,0.01,96.27,0.01,144.4,0.01c0.73,0,1.46,0,2.46,0c0-35.71,0-71.22,0-107.18c-1.33,0-2.65,0-3.97,0
		c-13.27,0-26.55,0.01-39.82-0.01c-1.23,0-2.51,0.05-3.7-0.24c-2.81-0.68-5.19-1.99-5.31-5.33c-0.12-3.45,1.89-5.24,5.06-5.84
		c1.69-0.32,3.44-0.46,5.16-0.47c14.51-0.04,29.03-0.19,43.54,0.1c3.71,0.07,7.62,1.08,11.05,2.56c7.38,3.19,14.43,7.13,21.76,10.45
		c9.82,4.44,14.32,11.81,14.2,22.6c-0.23,20.46-0.2,40.93,0,61.4c0.08,8.44-3.16,14.66-10.59,18.54
		c-7.35,3.84-14.78,7.54-22.26,11.12c-13.6,6.52-21.75,17.14-23.29,32.11c-0.56,5.41,1.01,11.01,1.39,16.55
		c0.15,2.12,0.4,4.71-0.61,6.33c-2.4,3.87-7.73,2.91-9.55-1.69c-5.03-12.72-4.92-25.41,1.06-37.82c1.77-3.66,4.04-7.08,6.25-10.9
		c-23.84,0-47.65,0-71.94,0c1.62,6.26,3.24,12.53,4.86,18.8c6.33,24.44,12.94,48.81,18.91,73.34c4.45,18.28-0.49,34.54-12.58,48.76
		c-0.23,0.27-0.38,0.62-0.98,1.64c4.79,0,9.16-0.08,13.52,0.04c2.08,0.06,4.47-0.06,6.14,0.91c1.67,0.97,3.66,3.23,3.59,4.84
		c-0.08,1.86-1.96,4.02-3.63,5.31c-1.18,0.91-3.31,0.78-5.02,0.79c-11.16,0.06-22.33-0.05-33.49,0.05
		c-13.22,0.13-26.19,11.06-27.97,23.58c47.34,0,94.65,0,142.25,0c0-5.83,0.22-11.51-0.07-17.16c-0.23-4.39-3-6.42-7.95-6.43
		c-14.02-0.03-28.04,0.02-42.05-0.05c-1.82-0.01-4.04,0.01-5.36-0.96c-1.57-1.15-3.31-3.39-3.25-5.09c0.06-1.7,1.93-3.88,3.59-4.84
		c1.67-0.97,4.06-0.92,6.14-0.94c11.64-0.08,23.29-0.04,35.42-0.04c-2.4-8.17-4.68-15.95-6.97-23.73
		c-4.39-14.96-8.84-29.91-13.07-44.92c-0.52-1.84-0.55-4.41,0.37-5.94c2.33-3.89,7.6-3.36,9.56,0.9c1.44,3.12,2.34,6.51,3.31,9.83
		c5.99,20.55,11.89,41.13,17.97,61.65c0.46,1.55,1.88,3.25,3.31,3.99c7.53,3.92,10.92,10.2,10.99,18.42
		c0.1,10.42,0.08,20.84,0.01,31.26c-0.08,12.23-7.83,19.96-20.11,19.97c-45.78,0.03-91.55,0.02-137.33,0
		c-6.77,0-9.42-2.49-9.24-9.17c0.26-9.64-0.06-19.43,1.51-28.89c2.83-17.05,17.18-29.94,34.28-32.68
		c10.46-1.67,16.38-9.25,21.29-17.61c6.76-11.5,6.65-23.91,3.61-36.41c-3.19-13.11-6.81-26.11-10.08-39.2
		c-0.6-2.39-1.8-2.8-3.92-2.79c-12.53,0.07-25.06,0.04-37.59,0.02c-1.35,0-2.76-0.03-4.04-0.39c-4.55-1.29-5.83-4.72-3.69-8.93
		c2.01-3.95,4.25-7.89,5.53-12.09c2.4-7.9,1.05-15.67-2.17-23.18c-0.95-2.22-2.23-3.19-4.77-3.09c-5.2,0.21-10.42,0.16-15.63,0.04
		c-7.72-0.17-13.84-3.2-17.87-10.11c-0.56-0.95-2.3-1.68-3.51-1.7c-8.31-0.15-16.62-0.2-24.93-0.05
		c-11.28,0.21-19.39-5.81-21.16-16.25C104.4,123.18,104.18,122.72,103.94,122.01z M330.67,136.76c7.37-3.95,14.29-7.46,20.96-11.39
		c1.38-0.81,2.57-3.2,2.58-4.87c0.17-23.05,0.14-46.11,0.04-69.16c-0.01-1.28-0.73-3.19-1.71-3.75c-7.04-4-14.24-7.72-21.87-11.78
		C330.67,69.72,330.67,102.77,330.67,136.76z M342.22,342.58c-47.69,0-95.11,0-142.55,0c0,3.94,0,7.61,0,11.65c1.63,0,3.08,0,4.53,0
		c42.66,0,85.33-0.01,127.99,0.01c9.62,0,10.5-0.83,10.21-10.34C342.39,343.54,342.3,343.18,342.22,342.58z M203.54,151.79
		c4.6,12.01,5.1,23.7-0.07,35.52c10.6,0,20.57,0,30.82,0c-2.99-11.46-5.89-22.68-8.91-33.87c-0.18-0.68-1.33-1.56-2.05-1.58
		C216.92,151.74,210.5,151.79,203.54,151.79z M116.28,80.07c11.99,0,23.68,0,35.26,0c0-4.03,0-7.78,0-11.45c-11.9,0-23.5,0-35.26,0
		C116.28,72.48,116.28,76.14,116.28,80.07z M151.68,92.49c-11.98,0-23.67,0-35.26,0c0,4.02,0,7.78,0,11.46c11.9,0,23.5,0,35.26,0
		C151.68,100.1,151.68,96.43,151.68,92.49z M116.18,56.3c11.99,0,23.68,0,35.41,0c0-3.98,0-7.73,0-11.68c-10.28,0-20.3-0.01-30.32,0
		c-3.29,0-4.58,2.28-5.01,4.98C115.91,51.74,116.18,53.98,116.18,56.3z M151.77,116.36c-11.79,0-23.56,0-35.65,0
		c0,1.14,0,2.23,0,3.31c-0.02,6.66,1.6,8.28,8.3,8.3c5.94,0.01,11.87-0.01,17.81-0.01c3.16,0,6.31,0,9.54,0
		C151.77,123.83,151.77,120.25,151.77,116.36z M44.5,77.73c-3.68,1.94-7,3.5-10.12,5.38c-2.61,1.57-2.86,4.52-0.49,5.99
		c3.29,2.04,6.82,3.71,10.61,5.73C44.5,88.96,44.5,83.69,44.5,77.73z"/>
	<path class="st1" d="M247.13,86.39c0,8.92,0.02,17.85-0.01,26.77c-0.03,9.57-5.12,14.75-14.68,14.79
		c-14.01,0.06-28.02,0.05-42.02,0c-9.48-0.03-14.73-5.3-14.74-14.77c-0.03-17.85-0.03-35.7,0-53.55c0.01-9.75,5.2-14.99,14.9-15.02
		c14.01-0.05,28.02-0.05,42.02,0c9.2,0.04,14.47,5.37,14.52,14.63C247.17,68.29,247.13,77.34,247.13,86.39z M234.91,115.97
		c0-19.74,0-39.45,0-59.21c-15.78,0-31.45,0-47.05,0c0,19.88,0,39.51,0,59.21C203.63,115.97,219.11,115.97,234.91,115.97z"/>
	<path class="st1" d="M282.73,80.33c-5.07,0-10.15,0.11-15.22-0.06c-1.79-0.06-3.93-0.33-5.22-1.36c-1.33-1.06-2.58-3.22-2.48-4.82
		c0.1-1.6,1.59-3.61,3.04-4.51c1.56-0.96,3.78-1.09,5.72-1.11c9.65-0.1,19.3-0.07,28.95-0.04c5.58,0.02,8.78,2.25,8.72,5.91
		c-0.07,3.81-3.16,5.96-8.66,5.98C292.62,80.34,287.67,80.33,282.73,80.33z"/>
	<path class="st1" d="M282.84,104.14c-5.07,0-10.15,0.08-15.22-0.05c-1.68-0.04-3.75-0.16-4.92-1.12c-1.43-1.17-2.94-3.31-2.87-4.97
		c0.07-1.66,1.73-3.69,3.26-4.72c1.39-0.94,3.54-1,5.36-1.01c9.65-0.09,19.3-0.06,28.95-0.03c5.62,0.02,8.82,2.16,8.84,5.8
		c0.02,3.91-3.14,6.08-8.93,6.09C292.49,104.16,287.67,104.15,282.84,104.14z"/>
	<path class="st1" d="M283.14,127.96c-5.2,0-10.4,0.11-15.59-0.06c-1.79-0.06-3.93-0.32-5.23-1.35c-1.34-1.06-2.6-3.21-2.52-4.8
		c0.09-1.6,1.56-3.62,3.01-4.52c1.55-0.96,3.78-1.11,5.71-1.13c9.65-0.1,19.3-0.07,28.95-0.04c5.59,0.02,8.8,2.22,8.76,5.88
		c-0.04,3.82-3.14,5.99-8.62,6.02C292.79,127.98,287.96,127.96,283.14,127.96z"/>
	<path class="st1" d="M282.6,56.51c-4.95,0-9.9,0.1-14.84-0.05c-1.8-0.06-3.93-0.25-5.26-1.24c-1.38-1.02-2.8-3.16-2.68-4.69
		c0.13-1.72,1.69-3.65,3.16-4.84c1.11-0.89,3.04-1.01,4.61-1.02c10.27-0.08,20.53-0.07,30.8-0.01c1.33,0.01,3.05,0.03,3.9,0.8
		c1.58,1.44,3.69,3.46,3.65,5.2c-0.04,1.77-2.17,3.78-3.83,5.13c-0.98,0.8-2.83,0.68-4.29,0.7
		C292.74,56.56,287.67,56.51,282.6,56.51z"/>
</g>
<g class="st0">
	<path class="st1" d="M0,81.12c0.52-0.41,1.41-0.76,1.5-1.25C3.97,65.7,12.29,55.7,23.97,48.05c7.64-5,16.22-6.6,25.14-6.63
		c26.66-0.1,53.32-0.14,79.98-0.13c4.77,0,9.21,0.91,11.25,6.12c2.14,5.48-0.89,11.15-6.64,12.16c-2.18,0.38-4.43,0.51-6.65,0.5
		c-23.56-0.1-47.12-0.33-70.68-0.33c-7.43,0-14.94,0.29-21.78,3.75C23.07,69.32,18.96,79.5,18.74,91.68
		c-0.12,6.44,0.25,12.89,0.26,19.34c0.02,68.83,0.01,137.66,0.02,206.48c0,6.94-0.36,13.92,0.3,20.8
		c1.51,15.58,12.34,25.57,28.09,26.27c6.93,0.31,13.89,0.13,20.83,0.13c79.12,0.03,158.24,0.05,237.36,0.07
		c7.45,0,14.91,0.08,21.73-3.65c10.78-5.89,14.77-15.57,14.92-27.21c0.16-12.9,0.07-25.79,0.08-38.69
		c0.01-14.01-0.01-28.03,0.01-42.04c0.01-6.32,3.48-10.37,9.02-10.6c5.32-0.22,9.47,3.86,9.49,10.15c0.09,28.4,0.5,56.81-0.21,85.19
		c-0.52,20.89-15.2,38.41-34.64,43.38c-2.93,0.75-6.04,0.76-9.35,1.14c1.5,0.57,2.81,1.06,4.11,1.56c-93.02,0-186.05,0-279.07,0
		c0.83-0.39,1.66-0.78,2.88-1.35c-1.84-0.26-3.28-0.52-4.72-0.66c-10.92-1.07-19.77-6.23-26.81-14.31
		c-6.98-8-13.12-16.56-10.13-28.53c-1.06,2.26-1.97,4.2-2.89,6.15C0,257.24,0,169.18,0,81.12z"/>
	<path class="st1" d="M381.05,58.61c-0.9,10.86-4.43,20.78-12.2,28.73c-13.08,13.39-26.37,26.59-39.6,39.84
		c-42.07,42.11-84.17,84.19-126.2,126.34c-3.88,3.89-8.24,6.51-13.56,7.95c-24.37,6.58-48.65,13.47-73.04,19.95
		c-9.52,2.53-15.07-2.99-12.52-12.46c6.78-25.21,13.68-50.39,21.09-75.42c1.32-4.46,4.77-8.68,8.16-12.09
		c47.33-47.54,94.83-94.93,142.29-142.35c7.02-7.01,13.91-14.15,21.04-21.05c17.9-17.34,41.51-17.87,60.06-1.15
		c5.59,5.04,10.78,10.62,15.57,16.44C378.06,40.56,380.48,49.27,381.05,58.61z M192.59,236.65c46.28-46.33,92.5-92.59,137.93-138.06
		c-14.57-14.48-29.55-29.36-43.67-43.39c-45.68,45.62-91.87,91.75-137.71,137.53C163.59,207.34,178.38,222.28,192.59,236.65z
		 M346.17,84.75c2.9-3.04,6.53-6.44,9.69-10.23c8.01-9.62,8.54-21.62,0.68-31.33c-4.62-5.71-10.06-10.98-15.91-15.44
		c-8.08-6.17-19.23-5.82-27.38,0.24c-4.05,3.01-7.47,6.84-11.28,10.18c-1.95,1.71-1.49,2.81,0.2,4.46
		c9.78,9.49,19.37,19.16,29.16,28.64C336.03,75.83,341.01,80.09,346.17,84.75z M174.92,246.48c-12.26-12.01-24.15-23.66-36.03-35.28
		c-4.27,15.45-8.78,31.75-13.47,48.69C142.44,255.27,158.5,250.93,174.92,246.48z"/>
</g>
<g class="st0">
	<path class="st1" d="M384,145.86c-0.48,0.56-1.35,1.11-1.37,1.69c-1.41,29.64-14.52,54.51-32.21,77.23
		c-8.43,10.82-17.81,20.99-27.51,30.7c-30.96,31.01-64.92,58.7-97.99,87.36c-6.08,5.27-12.27,10.47-18.78,15.19
		c-7.93,5.74-16.41,5.9-24.63,0.45c-4.22-2.8-8.25-5.95-12.08-9.27c-28.15-24.32-56.58-48.33-84.21-73.23
		c-21.92-19.76-43.06-40.51-59.09-65.58C14.27,191.88,6.28,171.8,4.3,149.49c-2.19-24.66,1.95-47.93,13.72-69.65
		c14.41-26.58,36.05-44.69,65.52-52.08c35.94-9.01,67.72-0.48,94.56,25.25c5.51,5.28,10.34,11.26,15.52,16.95
		c4.1-4.73,8.02-9.67,12.37-14.19c15.13-15.68,33.16-26.57,54.81-29.93c30.85-4.79,58.77,2.52,82.91,22.77
		c21.05,17.66,32.73,40.66,37.76,67.28c0.89,4.69,0.67,9.59,1.37,14.38c0.38-1.75,0.77-3.5,1.15-5.25
		C384,131.97,384,138.91,384,145.86z M193.39,340.36c1.26-0.99,2.26-1.7,3.18-2.5c13.82-11.88,27.78-23.61,41.42-35.7
		c24.21-21.46,48.45-42.9,72.24-64.83c14.91-13.74,27.8-29.36,37.53-47.29c18-33.18,19.24-66.99,1.96-100.68
		c-19.29-37.59-66.49-53.85-103.83-36.42c-14.45,6.74-25.15,17.82-34.64,30.27c-2.78,3.64-5.3,7.53-8.41,10.86
		c-5.33,5.71-13.01,5.78-18.44,0.21c-2.83-2.9-5.22-6.29-7.54-9.64c-6.56-9.47-14.47-17.75-23.71-24.48
		c-27.21-19.83-66.45-18.6-93.57,2.75C40.2,78.16,29.91,98.49,26.57,122.78c-3.63,26.43,1.89,50.73,15.97,73.17
		c9,14.35,19.53,27.58,31.94,39.07c22.3,20.62,44.91,40.91,67.63,61.06C158.89,310.97,176.06,325.43,193.39,340.36z"/>
</g>
<g>
	<path d="M83.35,384c1.11-0.42,2.22-0.84,3.01-1.13c-3.67-0.52-7.82-0.71-11.76-1.74c-15.47-4.03-27.48-18.09-29.22-33.99
		c-0.43-3.93-0.69-7.9-0.69-11.86c-0.05-34.23-0.03-68.45-0.03-102.68c0-1.47,0-2.94,0-4.59c-3.92-0.29-7.6-0.32-11.21-0.86
		c-26.42-3.98-38.55-34.71-21.78-55.63c5.25-6.55,11.35-12.46,17.31-18.42C74.11,107.93,119.3,62.8,164.5,17.68
		c5.9-5.89,11.98-11.72,20.43-13.68c12.05-2.8,23.34-0.99,32.57,7.71c11.63,10.97,22.97,22.26,34.27,33.57
		c39.7,39.74,79.33,79.55,118.99,119.33c5.48,5.5,10.32,11.4,12.16,19.21c0.13,0.55,0.71,0.99,1.08,1.48c0,4.96,0,9.92,0,14.88
		c-0.36,0.63-0.88,1.22-1.06,1.9c-3.9,14.43-17.89,26.21-35.51,25.61c-3.04-0.1-3.68,1.06-3.67,3.9c0.08,35.58,0,71.17,0.07,106.75
		c0.01,7.54-0.71,14.81-4.47,21.53c-7.89,14.13-19.12,22.81-36.07,22.26c-0.68-0.02-1.38,0.19-2.24,0.32
		c2.04,0.57,3.8,1.05,5.55,1.54c-21.58,0-43.16,0-64.74,0c0.38-0.27,0.75-0.55,1.13-0.81c0.1-0.07,0.26-0.06,0.34-0.14
		c0.05-0.06-0.01-0.21-0.02-0.32c-8.69-0.85-11.73-3.95-12.35-12.69c-0.17-2.34-0.14-4.7-0.14-7.06
		c-0.02-26.77,0.08-53.53-0.11-80.3c-0.08-11.11-7.25-18.45-18.34-18.78c-11.89-0.35-23.8-0.38-35.68-0.07
		c-11.79,0.3-18.92,8.06-18.92,19.82c-0.01,28.01,0.1,56.01-0.13,84.02c-0.03,3.64-1.25,7.54-2.94,10.81
		c-1.93,3.74-6.09,4.36-10.38,4.25c1.01,0.56,1.65,0.91,2.28,1.27C125.52,384,104.43,384,83.35,384z M253.02,360.83
		c1.14,0.15,1.85,0.33,2.56,0.33c14.88-0.05,29.77-0.04,44.65-0.19c14.06-0.15,21.25-7.49,21.26-21.45c0-40.19,0-80.37,0-120.56
		c0-8.87,4.63-13.5,13.53-13.56c4.59-0.03,9.18-0.15,13.77,0.04c6,0.25,10.44-2.09,12.81-7.6c2.44-5.67,0.87-10.68-3.4-14.91
		c-3.08-3.06-6.32-5.95-9.39-9.02c-35.44-35.42-70.89-70.84-106.28-106.31c-12.35-12.38-24.5-24.95-36.85-37.33
		c-8.25-8.27-14.81-8.22-22.98-0.02c-3.41,3.42-6.61,7.06-10.03,10.48c-26.2,26.25-52.4,52.49-78.65,78.68
		c-21.33,21.29-42.72,42.52-64.09,63.77c-4.15,4.12-5.22,8.98-2.96,14.3c2.27,5.33,6.66,7.81,12.38,7.89
		c4.71,0.06,9.43,0,14.14,0.02c8.99,0.03,13.39,4.52,13.36,13.61c-0.04,12.4-0.12,24.81-0.11,37.21
		c0.01,28.28-0.09,56.56,0.18,84.83c0.12,12.46,7.7,19.71,20.2,19.87c14.88,0.19,29.77,0.05,44.65,0.03c1.06,0,2.12-0.21,3.54-0.35
		c0-1.64,0-2.98,0-4.31c-0.01-19.97-0.1-39.94,0.01-59.91c0.03-6.68,0.1-13.42,0.92-20.04c2.19-17.78,17.9-33.13,35.74-34.44
		c11.85-0.87,23.78-0.66,35.67-0.71c4.07-0.02,8.21,0.3,12.19,1.09c18.82,3.71,33.1,21.19,33.17,40.43
		c0.06,16.99,0.01,33.98,0.01,50.98C253.02,342.59,253.02,351.51,253.02,360.83z"/>
</g>
</svg>
