<?xml version="1.0" encoding="utf-8"?>
<!-- Generator: Adobe Illustrator 27.5.0, SVG Export Plug-In . SVG Version: 6.00 Build 0)  -->
<svg version="1.1" id="Warstwa_1" xmlns="http://www.w3.org/2000/svg" xmlns:xlink="http://www.w3.org/1999/xlink" x="0px" y="0px"
	 viewBox="0 0 384 384" style="enable-background:new 0 0 384 384;" xml:space="preserve">
<g>
	<path d="M384,235.91c-0.77,4.38-1.34,8.8-2.35,13.13c-7.18,30.68-25.73,51.82-54.41,64.29c-2.42,1.05-3.46,2.24-3.43,4.88
		c0.08,6.57-0.22,13.15-0.05,19.72c0.04,1.42,1.01,3.35,2.17,4.14c7.88,5.32,11.14,15.8,7.2,24.5c-2.57,5.67-7.37,8.32-13.38,8.45
		c-8.8,0.2-17.62,0.23-26.42-0.01c-8.65-0.23-14.07-6.08-14.43-14.79c-0.33-7.95,1.2-14.84,9.32-18.55
		c0.72-0.33,1.51-1.48,1.53-2.26c0.12-6.42,0.07-12.85,0.07-19.5c-19.3,0-38.07,0-57.46,0c0,4.49,0.28,8.67-0.06,12.81
		c-0.78,9.55-7.96,17.09-17.46,17.75c-7.89,0.55-15.85,0.41-23.77,0.19c-4.28-0.12-6.56-2.56-6.4-5.75c0.14-2.97,2.51-5,6.61-5.14
		c6.94-0.23,13.89-0.08,20.82-0.35c6.01-0.23,8.74-2.96,9.17-9.01c0.23-3.31,0.04-6.64,0.04-10.25c-26.15,0-52.11,0-78,0
		c0,6.37,0,12.62,0,19.47c3.43,0,7.08,0,10.72,0c3.1,0,6.21-0.08,9.3,0.06c3.73,0.17,6.24,2.45,6.33,5.49
		c0.08,2.85-2.18,5.35-5.84,5.51c-7.3,0.32-14.62,0.32-21.93,0.31c-2.45,0-3.81,0.72-5.19,3.04c-9.37,15.7-29.27,24.02-46.82,19.89
		c-18.14-4.26-33.02-20.95-34.91-38.74c-0.73-6.84,0.09-13.36,2.47-19.7c0.82-2.18,0.61-3.15-1.62-4.23
		c-29.7-14.35-47.53-37.97-51.66-70.55c-5.94-46.8,23.82-88.24,68.8-98.54c1.21-0.28,2.58-0.24,3.59-0.84
		c0.95-0.56,2.1-1.71,2.17-2.67c0.26-3.58,0.26-7.2,0.02-10.78c-0.07-1.02-1.22-2.02-2.01-2.92c-1.47-1.68-4.15-3.22-4.25-4.93
		c-0.09-1.7,2.15-3.8,3.79-5.25c1.99-1.75,3.83-8.92,2.25-11.01c-0.46-0.6-1.65-0.61-2.21-1.18c-1.46-1.51-3.52-3.03-3.85-4.82
		c-0.24-1.31,1.77-3.16,2.99-4.58c0.99-1.14,3.11-1.88,3.3-3.03c0.44-2.63,0.11-5.42-0.18-8.11c-0.06-0.54-1.41-0.85-1.98-1.45
		c-1.52-1.59-3.9-3.17-4.09-4.94c-0.15-1.48,2.03-3.71,3.7-4.75c1.8-1.12,2.63-2.07,2.64-4.26c0.1-16.08,8.06-23.9,24.1-23.87
		c0.73,0,1.46,0,2.88,0c0-3.55-0.04-6.96,0.01-10.37c0.05-3.1-0.07-6.23,0.34-9.28c0.94-6.95,5.23-11,12.2-11.17
		c9.42-0.23,18.86-0.26,28.27,0.03c7.96,0.25,12.6,5.47,12.64,13.54c0.03,4.59,0.13,9.19-0.12,13.76c-0.16,2.9,0.61,3.88,3.68,3.83
		c3.41-0.05,7.02,0.21,10.21,1.31c8.66,2.99,13.63,11.02,13.27,21.07c-0.1,2.9,0.57,4.46,3.34,5.71c1.43,0.64,3.03,3.01,2.9,4.46
		c-0.15,1.7-1.81,3.64-3.34,4.73c-1.51,1.07-3.54,1.33-3.01,3.85c0.62,2.94-1.75,6.73,3.06,8.52c1.65,0.61,3.53,3.2,3.53,4.89
		c0,1.67-1.88,4.2-3.54,4.87c-4.55,1.85-1.98,5.54-2.74,8.31c-0.62,2.25,0.95,3.04,2.7,4.12c1.57,0.97,3.58,3.22,3.36,4.58
		c-0.31,1.91-2.18,4.17-3.98,5.05c-1.92,0.94-2.62,1.69-2.49,3.73c0.19,2.97-0.06,5.97,0.24,8.92c0.1,0.94,1.37,2.51,2.12,2.51
		c19.57,0.14,39.14,0.11,59.18,0.11c0-5.24,0.21-10.17-0.15-15.06c-0.09-1.18-1.91-2.44-3.19-3.28
		c-11.44-7.47-18.58-17.79-20.3-31.4c-2.6-20.54,9.89-40.03,29.79-47.03c25.18-8.85,52.02,7.47,56.53,34.37
		c2.95,17.6-5.07,34.9-20.56,43.95c-2.1,1.23-2.99,2.49-2.84,4.96c0.2,3.33,0.2,6.72-0.17,10.03c-0.33,3.05,0.98,3.51,3.58,3.5
		c12.99-0.06,25.78,1.51,37.8,6.66c28.84,12.35,46.4,34.19,53.46,64.62c0.53,2.28,0.5,4.68,0.87,7c0.04,0.26,0.99,0.38,1.52,0.56
		C384,224.5,384,230.2,384,235.91z M125.35,150.9c-0.17,0.97-0.29,1.33-0.29,1.69c-0.02,46.24-0.05,92.49,0.05,138.73
		c0,1.49,1.07,3.18,2.09,4.42c2.67,3.24,5.95,6.03,8.31,9.46c1.92,2.79,3.93,3.89,7.27,3.88c38.06-0.1,76.12-0.07,114.18-0.08
		c1.56,0,3.11,0,4.81,0c0.08-1.5,0.17-2.47,0.17-3.44c0.01-50.33-0.02-100.67,0.07-151c0.01-3.02-0.93-3.71-3.8-3.71
		c-42.03,0.09-84.06,0.06-126.08,0.06C129.93,150.9,127.72,150.9,125.35,150.9z M273.04,151.05c-0.05,1.18-0.12,2.02-0.12,2.87
		c-0.08,50.71-0.14,101.42-0.25,152.13c0,2.02,0.5,2.96,2.71,2.86c3.59-0.15,7.2-0.23,10.78-0.04c2.92,0.15,3.82-0.82,3.79-3.81
		c-0.15-19.71-0.12-39.43-0.11-59.14c0-1.6,0.04-3.26,0.47-4.78c0.95-3.44,4.54-4.7,7.74-3.06c2.93,1.5,2.79,4.16,2.79,6.75
		c-0.01,19.71-0.07,39.43-0.11,59.14c0,1.32,0,2.65,0,3.92c19.7,2.31,49.91-17.26,62.66-40.94c14.54-27.01,12.96-59.99-7.5-85.95
		c-13.82-17.53-32.1-28.07-54.94-29.85c-0.17,1.11-0.27,1.47-0.27,1.83c0.1,20.09,0.22,40.17,0.3,60.26
		c0.01,1.73,0.35,3.84-0.49,5.08c-1.09,1.63-3.07,3.26-4.91,3.64c-2.32,0.47-4.77-0.68-5.3-3.51c-0.38-2.05-0.46-4.19-0.46-6.29
		c-0.03-17.98-0.02-35.96-0.02-53.94c0-2.31,0-4.63,0-7.18C283.99,151.05,278.72,151.05,273.04,151.05z M86.1,150.94
		c-4.23,0.71-8.26,1.09-12.13,2.07c-34.26,8.59-56.6,39.93-59.55,68.19c-3.51,33.54,15.53,67.94,46.57,80.99
		c1.75,0.74,2.78,0.73,4.08-0.84c4.91-5.93,10.92-10.43,18.28-12.89c2.3-0.77,2.87-2.13,2.87-4.44
		c-0.01-43.26,0.05-86.52,0.1-129.78C86.31,153.39,86.2,152.55,86.1,150.94z M89.36,92.26c7.86,0,15.15-0.06,22.44,0.03
		c3.86,0.05,6.4,2.24,6.44,5.26c0.04,3.15-2.26,5.43-6.13,5.61c-4.45,0.2-8.92,0.11-13.39,0.12c-9.91,0.02-9.91,0.02-9.11,10.07
		c0.01,0.1,0.11,0.2,0.39,0.66c0.96,0.05,2.15,0.17,3.35,0.16c6.07-0.01,12.15-0.12,18.22-0.08c4.36,0.03,6.89,2.24,6.77,5.66
		c-0.13,3.57-2.37,5.29-6.94,5.29c-7.27,0-14.54,0-21.7,0c0,5.2,0,9.94,0,14.56c28.83,0,57.27,0,85.66,0c0-4.97,0-9.62,0-14.57
		c-7.56,0-14.86,0.05-22.15-0.02c-3.76-0.04-6.03-1.97-6.22-5.02c-0.2-3.28,1.53-5.3,5.55-5.54c6.18-0.36,12.38-0.29,18.58-0.43
		c1.42-0.03,2.84-0.17,4.26-0.27c0.09-1.09,0.17-1.7,0.19-2.31c0.27-8.16,0.27-8.12-7.75-8.18c-5.45-0.05-10.89-0.15-16.33-0.4
		c-2.98-0.14-4.47-2.2-4.56-4.94c-0.1-2.97,1.66-4.88,4.57-5.46c1.32-0.26,2.72-0.16,4.08-0.17c6.54-0.01,13.07-0.01,19.8-0.01
		c0-3.98,0-7.48,0-11.18c-4.95,0-9.63,0.01-14.32,0c-3.1-0.01-6.21,0.11-9.29-0.13c-3.01-0.24-4.78-2.24-4.86-5.16
		c-0.08-2.73,1.36-4.77,4.28-5.23c1.82-0.29,3.68-0.47,5.53-0.49c6.16-0.06,12.32-0.02,18.4-0.02c1.79-10.38-2.2-16.02-11.8-16.12
		c-20.7-0.2-41.41,0.09-62.11-0.01c-9.23-0.04-13.4,6.43-11.24,16.21c1.78,0,3.62,0,5.47,0c5.7-0.01,11.43-0.29,17.09,0.14
		c1.85,0.14,4.2,1.76,5.14,3.38c0.74,1.28,0.26,4.1-0.76,5.34c-1.05,1.27-3.4,1.97-5.2,2.02c-6.44,0.19-12.89-0.11-19.33,0.04
		c-1.01,0.02-2.75,1.27-2.86,2.12C89.13,85.97,89.36,88.83,89.36,92.26z M234.9,83.86c0.01,18.89,14.05,33.1,32.68,33.08
		c18.18-0.02,32.77-14.79,32.64-33.03c-0.12-17.02-15.52-32.37-32.46-32.35C249.63,51.58,234.89,66.07,234.9,83.86z M97.01,151.07
		c0,2.3,0,4.37,0,6.45c0.02,37.42,0.06,74.83,0.06,112.25c0,4.34-0.23,8.67-0.15,13c0.02,0.99,0.79,2.71,1.42,2.82
		c5.19,0.85,10.43,1.39,15.59,2.02c0-45.54,0-91,0-136.54C108.04,151.07,102.76,151.07,97.01,151.07z M99.22,296.67
		c-18.58,0.03-33.67,15.06-33.64,33.52c0.03,18.59,15.29,33.77,33.9,33.7c18.28-0.06,33.36-15.18,33.39-33.46
		C132.9,311.52,118.08,296.65,99.22,296.67z M119.59,23.14c-2.22-0.01-3.01,1.02-2.95,3.22c0.13,4.46,0.18,8.93,0,13.39
		c-0.11,2.69,0.9,3.37,3.46,3.31c8.05-0.19,16.12-0.13,24.17-0.19c1.21-0.01,2.41-0.15,3.98-0.26c0-5.49-0.17-10.68,0.07-15.85
		c0.13-2.76-1.13-3.53-3.45-3.54 M307.27,351.47c0,0.06,0,0.11,0,0.17c-4.22,0-8.44-0.1-12.65,0.03c-4.05,0.13-4.74,1.07-4.76,5.7
		c-0.02,5.55,0.43,6.29,4.81,6.37c8.06,0.14,16.12,0.02,24.18,0.19c3.4,0.07,4.75-1.48,4.74-4.64c0-1.24,0.01-2.48-0.03-3.72
		c-0.08-2.83-1.32-4.28-4.39-4.14C315.21,351.61,311.24,351.47,307.27,351.47z M312.32,340.54c0-7.56,0-14.92,0-22.48
		c-4,0.42-7.74,0.81-11.42,1.2c0,7.41,0,14.29,0,21.29C304.83,340.54,308.49,340.54,312.32,340.54z M259.13,139.65
		c5.82,0,11.21,0,16.71,0c0-4.16,0-8.06,0-12.03c-5.66,0-11.11,0-16.71,0C259.13,131.67,259.13,135.58,259.13,139.65z"/>
	<path d="M272.96,72.36c-1.09,3.63,0.08,6.28,3.2,8.8c3.05,2.47,1.63,7.35-2.29,7.95c-4.21,0.64-8.62,0.67-12.85,0.19
		c-1.54-0.17-3.56-2.37-4.01-4.02c-0.38-1.37,0.77-3.81,2.02-4.84c2.14-1.76,3.16-3.55,2.96-6.3c-0.19-2.58-0.1-5.19-0.02-7.78
		c0.1-3.26,2.06-5.01,5.11-5.29c3.08-0.28,4.85,1.58,5.31,4.51C272.73,67.77,272.77,70,272.96,72.36z"/>
	<path d="M99.15,350.66c-11.57,0.05-20.46-9.01-20.45-20.84c0.01-11.24,9.33-20.3,20.81-20.23c10.92,0.06,20.26,9.54,20.27,20.57
		C119.79,341.37,110.49,350.61,99.15,350.66z M99.32,339.4c5.14-0.05,9.09-4.04,9.16-9.23c0.06-4.79-4.49-9.39-9.24-9.35
		c-5.4,0.05-9.41,4.04-9.43,9.37C89.78,335.47,93.89,339.45,99.32,339.4z"/>
</g>
</svg>
